<svg width="48" height="44" viewBox="0 0 48 44" fill="none" xmlns="http://www.w3.org/2000/svg">
    <g clip-path="url(#clip0_102_483)">
    <path d="M0.9179 32.9778L17.69 3.98405L17.7564 3.87859C18.4473 2.74633 19.3812 1.78176 20.4905 1.0546C21.5534 0.371294 22.7892 0.00543908 24.0527 0C25.3153 0.000199041 26.5509 0.365052 27.611 1.0507C28.7228 1.77989 29.657 2.74884 30.3452 3.8864C30.396 3.96843 30.4428 4.05045 30.4858 4.13638L46.9845 32.7825L47.0743 32.9543C47.6953 34.1885 48.0126 35.553 48 36.9345C47.9938 38.0748 47.7039 39.1957 47.1563 40.1959C46.5378 41.3133 45.5918 42.2144 44.4456 42.7778L44.2191 42.8793C43.0971 43.364 41.8823 43.596 40.6608 43.559H6.88226C6.79242 43.559 6.7104 43.559 6.62447 43.559C5.79715 43.5523 4.97745 43.4003 4.20279 43.1098C2.97198 42.6433 1.914 41.8103 1.17179 40.7232C0.426008 39.6163 0.01883 38.316 5.57106e-06 36.9814C-0.0192771 35.8144 0.189015 34.6549 0.613237 33.5676C0.692948 33.3612 0.793734 33.1635 0.913994 32.9778H0.9179Z" fill="#CF6679"/>
    <path fill-rule="evenodd" clip-rule="evenodd" d="M3.51536 34.6691L20.3695 5.53081C22.4123 2.30842 25.6542 2.22639 27.74 5.53081L44.3167 34.3175C45.6369 36.9775 44.9807 40.567 40.6686 40.4772H6.88228C4.04267 40.5475 2.19516 38.0594 3.50755 34.6691H3.51536Z" fill="#CF6679"/>
    <path d="M22.4864 32.3021C22.8514 31.9408 23.3335 31.7219 23.8457 31.6849C24.1643 31.6633 24.4839 31.7099 24.7831 31.8216C25.0761 31.9363 25.3421 32.1105 25.5643 32.3333C25.9367 32.7033 26.1616 33.1962 26.197 33.7199C26.2079 33.9028 26.1974 34.0863 26.1658 34.2667C26.0774 34.7817 25.8057 35.2473 25.4007 35.5776C24.9958 35.9078 24.4851 36.0804 23.9628 36.0635C23.6564 36.0578 23.3545 35.9887 23.0762 35.8604C22.577 35.6307 22.1834 35.2204 21.9747 34.712C21.91 34.5526 21.8641 34.3861 21.838 34.216C21.811 34.0468 21.8031 33.8752 21.8146 33.7043C21.8442 33.4332 21.9195 33.1691 22.0372 32.9231C22.1394 32.6909 22.2898 32.4832 22.4786 32.3138L22.4864 32.3021ZM25.6736 28.3024C25.5955 30.1733 22.4278 30.1772 22.3536 28.3024C22.0333 25.0956 21.2131 16.8228 21.2404 13.8114C21.2678 12.8818 22.0216 12.331 23.0215 12.1201C23.6662 11.992 24.3298 11.992 24.9745 12.1201C25.9939 12.3388 26.7907 12.9013 26.7907 13.8543V13.9481L25.6736 28.3024Z" fill="white"/>
    </g>
    <defs>
    <clipPath id="clip0_102_483">
    <rect width="48" height="43.5707" fill="white"/>
    </clipPath>
    </defs>
    </svg>
    