<svg width="302" height="229" viewBox="0 0 302 229" fill="none" xmlns="http://www.w3.org/2000/svg">
<path opacity="0.1" d="M290.806 155.563C291.925 140.705 288.469 125.193 283.839 111.386C276.989 90.8296 263.612 69.7644 241.132 64.8993C228.17 62.1032 214.978 65.1006 203.861 72.1242C193.175 78.8794 184.848 87.6086 171.701 89.2974C158.409 91.0086 144.77 90.3208 131.41 90.3208C97.0584 90.3208 69.182 126.406 76.1497 163.996C83.1174 201.586 115.976 227.651 143.853 227.651C168.905 227.651 189.518 212.625 213.312 208.587C225.111 206.585 236.961 208.956 248.637 205.959C262.209 202.469 274.97 194.154 282.491 182.114C287.613 173.905 290.107 164.863 290.806 155.563Z" fill="#F89E31"/>
<path opacity="0.1" d="M301.704 128.094C303.268 107.339 298.435 85.6709 291.959 66.385C282.379 37.671 263.672 8.24621 232.234 1.45046C214.106 -2.45514 195.657 1.73167 180.11 11.5425C165.165 20.9785 153.52 33.1718 135.134 35.5308C116.544 37.921 97.4699 36.9602 78.7865 36.9602C30.7448 36.9602 -8.2407 87.3659 1.50372 139.873C11.2481 192.38 57.2018 228.788 96.1873 228.788C131.223 228.788 160.05 207.799 193.327 202.159C209.828 199.363 226.4 202.675 242.729 198.488C261.71 193.614 279.556 181.999 290.075 165.181C297.238 153.714 300.726 141.084 301.704 128.094Z" fill="#F89E31"/>
<g opacity="0.5">
<path d="M89.7275 159.559C91.3141 159.417 94.3707 157.608 94.376 157.608C94.3813 157.607 92.5997 155.892 92.4713 155.796C91.011 154.728 87.5734 153.497 85.9489 154.722C85.6842 154.932 85.4657 155.198 85.3077 155.501C85.1498 155.805 85.0558 156.139 85.0321 156.482C85.0084 156.825 85.0553 157.169 85.17 157.493C85.2846 157.816 85.4643 158.111 85.6973 158.358C86.6496 159.449 88.3895 159.675 89.7275 159.559Z" fill="#2E2E2E"/>
<path d="M95.7083 168.205C97.1305 167.669 99.4646 165.293 99.6472 165.1C100.969 166.477 102.379 167.762 103.868 168.946C104.73 169.636 105.618 170.309 106.543 170.971C106.084 170.732 105.679 170.52 105.62 170.499C103.933 169.848 100.313 169.61 99.0489 171.232C98.8427 171.506 98.6957 171.823 98.6176 172.16C98.5394 172.497 98.532 172.848 98.5958 173.188C98.6596 173.529 98.7931 173.852 98.9875 174.136C99.1819 174.419 99.4328 174.657 99.7235 174.834C100.92 175.628 102.659 175.375 103.918 174.896C105.177 174.416 107.23 172.43 107.763 171.895C108.111 172.146 108.453 172.402 108.801 172.647C110.474 173.842 112.153 175.027 113.764 176.239C114.331 176.666 114.872 177.11 115.418 177.549C115.013 177.337 114.672 177.162 114.618 177.141C112.931 176.49 109.311 176.251 108.047 177.873C107.846 178.149 107.704 178.465 107.63 178.801C107.556 179.136 107.552 179.484 107.617 179.822C107.683 180.16 107.817 180.479 108.011 180.761C108.205 181.042 108.454 181.278 108.742 181.453C109.939 182.242 111.678 181.989 112.937 181.515C114.196 181.041 116.05 179.237 116.682 178.608C117.218 179.074 117.754 179.539 118.29 180.021C118.629 180.354 118.977 180.654 119.3 181.008L120.272 182.039C120.864 182.711 121.482 183.404 122.042 184.081C122.441 184.549 122.807 184.995 123.179 185.452C122.643 185.019 121.504 184.197 121.408 184.139C119.807 183.237 116.285 182.431 114.806 183.844C114.567 184.084 114.38 184.374 114.257 184.694C114.134 185.014 114.078 185.357 114.092 185.7C114.107 186.044 114.192 186.38 114.342 186.688C114.492 186.996 114.703 187.268 114.962 187.486C116.035 188.45 117.788 188.475 119.102 188.201C120.554 187.893 123.117 185.997 123.437 185.759C124.046 186.512 124.638 187.254 125.183 187.959C126.655 189.853 127.88 191.539 128.825 192.902L130.002 192.243C128.998 190.865 127.693 189.132 126.11 187.185C125.49 186.416 124.812 185.609 124.112 184.787C124.76 183.985 125.36 183.143 125.909 182.266C127.351 182.79 130.299 182.646 130.68 182.629C130.789 183.607 130.881 184.552 130.957 185.454C131.159 187.795 131.272 189.849 131.342 191.496L132.619 190.777C132.518 189.234 132.371 187.398 132.147 185.345C132.043 184.351 131.912 183.298 131.765 182.212C132.134 182.098 135.165 181.143 136.274 180.137C137.288 179.226 138.327 177.776 138.222 176.303C138.209 175.96 138.125 175.622 137.976 175.314C137.827 175.005 137.617 174.732 137.358 174.513C137.1 174.293 136.8 174.132 136.477 174.039C136.154 173.947 135.816 173.925 135.484 173.975C133.504 174.335 131.978 177.722 131.733 179.553C131.735 179.662 131.688 180.853 131.682 181.604C131.623 181.164 131.564 180.735 131.5 180.28C131.366 179.379 131.21 178.483 131.049 177.523C130.954 177.064 130.858 176.597 130.759 176.124C130.673 175.652 130.524 175.17 130.406 174.687C130.115 173.571 129.761 172.461 129.385 171.346C130.152 171.232 132.867 170.754 134.006 170.026C135.145 169.298 136.382 168.008 136.494 166.554C136.531 166.212 136.497 165.866 136.396 165.538C136.294 165.21 136.126 164.907 135.904 164.65C135.681 164.392 135.408 164.186 135.103 164.044C134.798 163.901 134.467 163.827 134.132 163.824C132.12 163.852 130.114 166.985 129.599 168.781C129.569 168.896 129.338 170.21 129.226 170.935C128.995 170.264 128.768 169.598 128.51 168.932C127.774 167.006 126.964 165.081 126.169 163.156L125.451 161.388C125.726 161.346 128.965 160.871 130.241 160.038C131.374 159.294 132.617 158.02 132.724 156.566C132.769 156.221 132.741 155.87 132.644 155.537C132.546 155.203 132.381 154.894 132.158 154.631C131.936 154.368 131.661 154.157 131.353 154.012C131.045 153.866 130.71 153.79 130.371 153.787C128.354 153.815 126.348 156.948 125.838 158.717C125.798 158.854 125.474 160.746 125.412 161.23C124.865 159.933 124.375 158.629 123.923 157.33C123.305 155.574 122.797 153.779 122.404 151.956C122.531 151.954 125.918 151.456 127.224 150.6C128.353 149.856 129.595 148.582 129.707 147.129C129.745 146.787 129.712 146.441 129.611 146.113C129.51 145.785 129.343 145.482 129.121 145.224C128.899 144.967 128.626 144.76 128.321 144.618C128.016 144.476 127.685 144.401 127.351 144.398C125.334 144.426 123.328 147.559 122.817 149.329C122.777 149.47 122.424 151.509 122.387 151.88C122.385 151.771 122.331 151.668 122.308 151.56C121.962 149.719 121.775 147.851 121.749 145.977C121.735 144.944 121.753 143.954 121.803 142.99C122.444 142.981 125.364 142.832 126.626 142.195C127.888 141.557 129.197 140.457 129.468 139.023C129.542 138.687 129.545 138.34 129.479 138.002C129.414 137.665 129.279 137.346 129.086 137.065C128.892 136.784 128.644 136.548 128.356 136.372C128.068 136.196 127.748 136.084 127.415 136.044C125.406 135.865 123.079 138.73 122.377 140.437C122.341 140.53 122.053 141.529 121.872 142.233C121.903 141.803 121.923 141.351 121.96 140.938C122.092 139.375 122.311 137.958 122.51 136.699C122.628 135.985 122.751 135.347 122.87 134.747C123.49 134.385 125.953 132.909 126.768 131.767C127.584 130.624 128.277 129.027 127.865 127.608C127.78 127.273 127.627 126.961 127.416 126.691C127.206 126.421 126.942 126.2 126.642 126.043C126.342 125.885 126.014 125.794 125.678 125.776C125.341 125.758 125.005 125.813 124.692 125.938C122.828 126.725 122.052 130.375 122.194 132.216C122.197 132.379 122.681 134.847 122.712 134.825L122.749 134.825C122.625 135.397 122.496 136.014 122.367 136.695C122.141 137.949 121.875 139.367 121.727 140.93C121.529 142.612 121.427 144.304 121.421 145.998C121.407 147.896 121.557 149.792 121.87 151.664C121.87 151.664 121.871 151.707 121.871 151.729C121.599 151.189 120.784 149.71 120.708 149.608C119.629 148.111 116.754 145.855 114.841 146.496C114.526 146.613 114.239 146.795 113.997 147.033C113.756 147.271 113.566 147.558 113.439 147.876C113.313 148.194 113.253 148.536 113.263 148.88C113.274 149.224 113.355 149.561 113.5 149.871C114.075 151.206 115.648 151.984 116.97 152.303C118.447 152.658 121.668 151.998 121.927 151.946C122.289 153.841 122.775 155.71 123.381 157.539C123.729 158.621 124.109 159.671 124.484 160.732C124.234 160.273 124.006 159.868 123.968 159.815C122.889 158.318 120.014 156.062 118.101 156.703C117.786 156.819 117.498 157.002 117.257 157.24C117.015 157.478 116.825 157.765 116.699 158.083C116.572 158.401 116.513 158.743 116.523 159.087C116.534 159.43 116.614 159.768 116.76 160.077C117.335 161.418 118.907 162.191 120.225 162.51C121.542 162.829 124.315 162.328 125.044 162.182C125.203 162.588 125.352 162.993 125.511 163.399C126.263 165.347 127.026 167.283 127.709 169.204C127.951 169.881 128.167 170.558 128.388 171.235C128.166 170.83 127.97 170.49 127.938 170.441C126.858 168.944 123.978 166.689 122.071 167.33C121.755 167.446 121.467 167.628 121.225 167.865C120.983 168.103 120.792 168.39 120.665 168.708C120.538 169.027 120.478 169.369 120.488 169.713C120.498 170.056 120.579 170.394 120.725 170.704C121.304 172.039 122.872 172.817 124.195 173.136C125.517 173.455 128.016 172.996 128.882 172.832C129.087 173.531 129.293 174.23 129.44 174.918C129.542 175.39 129.675 175.84 129.756 176.317C129.837 176.795 129.928 177.261 130.014 177.722C130.143 178.623 130.288 179.551 130.395 180.436C130.473 181.05 130.539 181.636 130.605 182.223C130.368 181.546 129.884 180.231 129.83 180.123C129.057 178.709 127.948 177.519 126.605 176.665C126.524 176.504 126.43 176.351 126.323 176.207C126.127 175.928 125.876 175.694 125.586 175.521C125.297 175.348 124.975 175.239 124.642 175.202C124.309 175.165 123.972 175.201 123.653 175.306C123.334 175.412 123.041 175.585 122.791 175.815C121.328 177.238 121.882 180.929 122.657 182.599C122.706 182.696 123.319 183.705 123.74 184.335C123.45 184.002 123.202 183.674 122.874 183.336C122.282 182.658 121.67 181.998 121.019 181.289L120.026 180.28C119.703 179.942 119.317 179.621 118.953 179.284C118.111 178.523 117.222 177.79 116.312 177.079C116.887 176.528 118.925 174.623 119.437 173.354C119.949 172.085 120.333 170.329 119.643 169.049C119.494 168.74 119.282 168.467 119.023 168.248C118.764 168.028 118.463 167.867 118.139 167.776C117.816 167.684 117.477 167.664 117.145 167.716C116.813 167.769 116.496 167.893 116.214 168.08C114.557 169.261 114.556 172.997 115.078 174.769C115.111 174.877 115.626 176.104 115.921 176.769C115.386 176.347 114.85 175.919 114.252 175.509C112.604 174.319 110.894 173.168 109.2 172.016L107.649 170.95C107.859 170.762 110.3 168.531 110.916 167.098C111.46 165.834 111.812 164.072 111.121 162.793C110.969 162.49 110.756 162.223 110.497 162.01C110.238 161.797 109.938 161.641 109.617 161.554C109.296 161.467 108.961 161.45 108.634 161.503C108.306 161.557 107.993 161.681 107.714 161.867C106.058 163.042 106.056 166.784 106.584 168.55C106.623 168.68 107.367 170.448 107.574 170.886C106.441 170.096 105.318 169.285 104.237 168.474C102.776 167.36 101.387 166.151 100.078 164.855C100.172 164.766 102.74 162.446 103.366 161.002C103.91 159.744 104.267 157.977 103.577 156.697C103.424 156.391 103.21 156.121 102.949 155.905C102.689 155.688 102.386 155.531 102.063 155.443C101.739 155.354 101.4 155.337 101.07 155.392C100.739 155.446 100.423 155.572 100.143 155.76C98.4861 156.942 98.4848 160.678 99.0122 162.444C99.0512 162.584 99.8558 164.482 100.024 164.812L99.7885 164.592C98.5095 163.254 97.3499 161.801 96.3238 160.251C95.7455 159.4 95.2415 158.558 94.764 157.727C95.2882 157.345 97.6465 155.572 98.3547 154.327C99.0629 153.083 99.5695 151.423 99.0214 150.076C98.903 149.754 98.72 149.461 98.4841 149.216C98.2483 148.971 97.965 148.78 97.6526 148.655C97.3402 148.53 97.0058 148.474 96.671 148.491C96.3362 148.507 96.0087 148.596 95.7096 148.751C93.9388 149.738 93.5401 153.453 93.8723 155.27C93.8736 155.368 94.1785 156.354 94.4266 157.063C94.2201 156.685 93.9977 156.297 93.8073 155.929C93.0787 154.553 92.4939 153.228 91.9857 152.088C91.7064 151.423 91.4386 150.817 91.2402 150.249C91.5595 149.603 92.8203 146.964 92.8857 145.56C92.951 144.156 92.6195 142.393 91.5476 141.456C91.298 141.226 91.0042 141.052 90.6853 140.947C90.3663 140.841 90.0293 140.806 89.6962 140.843C89.3631 140.88 89.0414 140.988 88.7519 141.161C88.4624 141.334 88.2116 141.568 88.0159 141.847C86.8853 143.56 88.1989 147.044 89.3098 148.502C89.4069 148.632 91.126 150.419 91.1414 150.386L91.1409 150.348C91.3443 150.889 91.5697 151.49 91.8221 152.128C92.3095 153.301 92.8679 154.626 93.565 156.025C94.3072 157.542 95.1355 159.012 96.0457 160.429C97.0526 162.02 98.1949 163.517 99.4592 164.901L99.5075 164.949C98.9739 164.652 97.5178 163.889 97.3741 163.837C95.6866 163.186 92.0669 162.947 90.8079 164.569C90.6069 164.844 90.4647 165.159 90.3903 165.494C90.3159 165.829 90.3111 166.177 90.3762 166.514C90.4413 166.851 90.5749 167.171 90.7681 167.452C90.9614 167.732 91.2101 167.968 91.4979 168.144C92.711 168.948 94.4441 168.685 95.7083 168.205Z" fill="#2E2E2E"/>
<path d="M121.534 142.695C121.571 142.694 120.971 140.255 120.916 140.104C120.283 138.372 118.066 135.411 116.05 135.51C115.717 135.537 115.392 135.636 115.098 135.8C114.804 135.964 114.547 136.189 114.343 136.462C114.14 136.734 113.994 137.047 113.915 137.381C113.837 137.715 113.827 138.063 113.887 138.401C114.103 139.85 115.427 141.028 116.612 141.686C117.999 142.461 121.529 142.695 121.534 142.695Z" fill="#2E2E2E"/>
<path d="M259.386 157.215C257.796 157.118 254.691 155.393 254.691 155.393C254.691 155.393 256.419 153.629 256.539 153.529C257.97 152.422 261.377 151.096 263.035 152.275C263.305 152.479 263.53 152.739 263.696 153.038C263.862 153.337 263.964 153.668 263.997 154.011C264.03 154.353 263.992 154.699 263.886 155.025C263.78 155.351 263.608 155.65 263.381 155.904C262.438 157.021 260.727 157.295 259.386 157.215Z" fill="#2E2E2E"/>
<path d="M253.651 166.023C252.215 165.527 249.816 163.216 249.623 163.028C248.341 164.443 246.967 165.766 245.51 166.99C244.668 167.703 243.798 168.4 242.918 169.087C243.365 168.836 243.77 168.613 243.828 168.59C245.496 167.893 249.108 167.555 250.411 169.141C250.62 169.41 250.77 169.722 250.854 170.055C250.937 170.388 250.951 170.736 250.894 171.075C250.838 171.414 250.713 171.736 250.527 172.022C250.341 172.308 250.098 172.55 249.815 172.733C248.64 173.56 246.901 173.356 245.624 172.911C244.347 172.466 242.245 170.537 241.703 170.017L240.681 170.798C239.041 172.039 237.401 173.269 235.824 174.526C235.269 174.968 234.735 175.427 234.201 175.88C234.601 175.657 234.937 175.473 234.995 175.451C236.659 174.753 240.276 174.415 241.579 176.002C241.787 176.271 241.938 176.583 242.021 176.917C242.104 177.25 242.118 177.598 242.062 177.938C242.006 178.277 241.881 178.6 241.695 178.887C241.509 179.173 241.266 179.416 240.983 179.599C239.808 180.42 238.063 180.216 236.791 179.777C235.52 179.338 233.616 177.585 232.967 176.974C232.444 177.455 231.921 177.935 231.398 178.432C231.064 178.774 230.724 179.083 230.412 179.446C230.099 179.809 229.781 180.151 229.473 180.503C228.895 181.191 228.301 181.901 227.755 182.594C227.375 183.072 227.016 183.529 226.657 183.996C227.207 183.548 228.296 182.695 228.396 182.634C229.94 181.688 233.47 180.785 234.982 182.157C235.228 182.39 235.423 182.675 235.555 182.991C235.686 183.307 235.752 183.649 235.746 183.992C235.741 184.336 235.665 184.675 235.524 184.987C235.383 185.299 235.179 185.576 234.926 185.801C233.881 186.795 232.135 186.868 230.807 186.631C229.353 186.362 226.739 184.539 226.412 184.309C225.819 185.079 225.253 185.837 224.723 186.557C223.309 188.491 222.126 190.21 221.218 191.598L220.018 190.973C220.984 189.567 222.246 187.799 223.77 185.809C224.368 185.023 225.024 184.198 225.706 183.356C225.035 182.571 224.41 181.746 223.834 180.886C222.407 181.449 219.457 181.387 219.075 181.381C218.999 182.361 218.927 183.309 218.876 184.212C218.739 186.558 218.683 188.615 218.663 190.263L217.362 189.579C217.42 188.034 217.522 186.194 217.684 184.136C217.765 183.14 217.867 182.083 217.979 180.994C217.607 180.89 214.556 180.019 213.415 179.045C212.38 178.162 211.302 176.741 211.366 175.266C211.37 174.922 211.444 174.583 211.583 174.27C211.723 173.958 211.925 173.679 212.177 173.452C212.429 173.226 212.724 173.056 213.044 172.954C213.364 172.853 213.701 172.822 214.033 172.863C216.029 173.167 217.642 176.512 217.937 178.335C217.939 178.444 218.019 179.634 218.045 180.384C218.097 179.943 218.139 179.512 218.196 179.055C218.3 178.15 218.431 177.251 218.571 176.287C218.649 175.823 218.733 175.354 218.816 174.88C218.9 174.406 219.025 173.92 219.13 173.435C219.395 172.311 219.713 171.191 220.058 170.066C219.288 169.973 216.561 169.571 215.403 168.874C214.244 168.178 212.972 166.923 212.825 165.473C212.778 165.132 212.801 164.785 212.893 164.454C212.985 164.124 213.143 163.816 213.358 163.553C213.573 163.289 213.84 163.075 214.141 162.925C214.442 162.774 214.771 162.69 215.105 162.678C217.122 162.65 219.214 165.727 219.773 167.508C219.812 167.622 220.074 168.929 220.205 169.651C220.418 168.973 220.632 168.302 220.866 167.629C221.554 165.684 222.305 163.737 223.046 161.791C223.276 161.195 223.496 160.599 223.715 160.003C223.445 159.969 220.188 159.584 218.89 158.786C217.742 158.073 216.465 156.835 216.312 155.385C216.265 155.044 216.288 154.697 216.38 154.366C216.472 154.036 216.631 153.729 216.846 153.465C217.061 153.201 217.328 152.987 217.629 152.837C217.93 152.686 218.258 152.602 218.593 152.59C220.61 152.562 222.702 155.639 223.266 157.393C223.305 157.529 223.686 159.411 223.756 159.894C224.267 158.581 224.72 157.264 225.142 155.953C225.713 154.181 226.173 152.372 226.518 150.539C226.391 150.541 222.996 150.136 221.667 149.317C220.513 148.604 219.236 147.366 219.083 145.916C219.037 145.575 219.061 145.228 219.153 144.897C219.246 144.566 219.405 144.259 219.621 143.996C219.836 143.732 220.103 143.518 220.404 143.368C220.706 143.217 221.034 143.133 221.369 143.121C223.386 143.093 225.473 146.17 226.037 147.924C226.081 148.065 226.485 150.094 226.533 150.463C226.531 150.354 226.588 150.25 226.602 150.141C226.9 148.292 227.035 146.419 227.007 144.544C226.993 143.511 226.947 142.522 226.87 141.561C226.23 141.569 223.306 141.501 222.032 140.899C220.758 140.296 219.409 139.233 219.104 137.806C219.02 137.473 219.006 137.125 219.063 136.786C219.119 136.447 219.244 136.124 219.43 135.837C219.615 135.551 219.858 135.308 220.141 135.125C220.424 134.941 220.742 134.821 221.074 134.772C223.077 134.537 225.483 137.338 226.226 139.024C226.27 139.116 226.58 140.107 226.78 140.806C226.737 140.377 226.705 139.926 226.657 139.513C226.482 137.955 226.229 136.544 225.989 135.291C225.853 134.581 225.711 133.946 225.576 133.35C224.952 133.005 222.449 131.598 221.602 130.479C220.755 129.359 220.019 127.781 220.386 126.351C220.462 126.016 220.606 125.702 220.808 125.428C221.01 125.154 221.266 124.927 221.559 124.761C221.853 124.596 222.177 124.495 222.51 124.467C222.844 124.438 223.18 124.482 223.496 124.595C225.381 125.33 226.257 128.957 226.166 130.802C226.168 130.965 225.752 133.445 225.72 133.424L225.683 133.424C225.823 133.994 225.975 134.606 226.122 135.284C226.382 136.531 226.688 137.941 226.879 139.499C227.122 141.175 227.269 142.863 227.319 144.556C227.388 146.454 227.292 148.353 227.032 150.233L227.033 150.298C227.29 149.751 228.064 148.25 228.137 148.146C229.175 146.619 231.986 144.285 233.916 144.873C234.234 144.98 234.527 145.154 234.776 145.385C235.024 145.616 235.223 145.898 235.358 146.213C235.493 146.528 235.562 146.868 235.561 147.212C235.559 147.556 235.487 147.896 235.349 148.209C234.812 149.56 233.261 150.381 231.953 150.736C230.487 151.132 227.243 150.562 226.983 150.516C226.674 152.421 226.24 154.302 225.684 156.147C225.366 157.239 225.015 158.299 224.67 159.37C224.907 158.904 225.124 158.493 225.16 158.439C226.198 156.912 229.015 154.578 230.939 155.166C231.258 155.273 231.551 155.448 231.799 155.678C232.048 155.909 232.246 156.191 232.382 156.505C232.518 156.82 232.588 157.16 232.587 157.504C232.586 157.848 232.515 158.188 232.378 158.502C231.836 159.858 230.29 160.674 228.977 161.029C227.663 161.384 224.883 160.96 224.15 160.835L223.722 162.064C223.019 164.032 222.31 165.989 221.685 167.928C221.462 168.611 221.265 169.293 221.068 169.976C221.279 169.565 221.46 169.22 221.491 169.171C222.529 167.644 225.345 165.31 227.27 165.898C227.588 166.006 227.88 166.181 228.128 166.412C228.376 166.643 228.574 166.925 228.709 167.239C228.845 167.554 228.914 167.894 228.913 168.237C228.912 168.581 228.84 168.921 228.703 169.234C228.161 170.585 226.615 171.406 225.302 171.761C223.988 172.117 221.478 171.727 220.608 171.587C220.427 172.291 220.241 172.995 220.108 173.688C220.019 174.162 219.898 174.615 219.836 175.095C219.774 175.574 219.69 176.043 219.617 176.506C219.508 177.41 219.394 178.342 219.31 179.23C219.245 179.845 219.195 180.433 219.145 181.021C219.363 180.338 219.816 179.011 219.862 178.901C220.584 177.449 221.657 176.211 222.979 175.307C223.051 175.141 223.141 174.985 223.248 174.841C223.435 174.556 223.679 174.316 223.964 174.135C224.248 173.954 224.566 173.837 224.898 173.791C225.229 173.744 225.567 173.771 225.888 173.867C226.209 173.964 226.507 174.129 226.762 174.352C228.264 175.734 227.817 179.439 227.083 181.129C227.037 181.228 226.453 182.253 226.049 182.895C226.33 182.554 226.601 182.218 226.892 181.871C227.465 181.178 228.054 180.501 228.69 179.775L229.65 178.739C229.968 178.392 230.345 178.06 230.695 177.713C231.515 176.929 232.384 176.172 233.279 175.436C232.689 174.901 230.599 173.053 230.052 171.799C229.505 170.545 229.068 168.8 229.723 167.502C229.866 167.191 230.072 166.914 230.326 166.69C230.581 166.467 230.879 166.3 231.2 166.203C231.521 166.105 231.859 166.078 232.191 166.123C232.524 166.168 232.843 166.284 233.129 166.465C234.818 167.6 234.917 171.335 234.444 173.12C234.414 173.229 233.933 174.47 233.656 175.143C234.18 174.706 234.73 174.263 235.29 173.837C236.909 172.602 238.582 171.404 240.249 170.206L241.764 169.097C241.555 168.915 239.047 166.753 238.392 165.337C237.814 164.089 237.414 162.337 238.068 161.039C238.212 160.728 238.417 160.452 238.672 160.228C238.927 160.004 239.225 159.838 239.546 159.741C239.868 159.644 240.206 159.617 240.538 159.663C240.87 159.709 241.189 159.827 241.474 160.008C243.158 161.138 243.263 164.878 242.789 166.658C242.754 166.789 242.059 168.577 241.858 169.02C242.975 168.2 244.075 167.358 245.128 166.516C246.558 165.365 247.914 164.118 249.185 162.784C249.089 162.698 246.463 160.45 245.792 159.024C245.214 157.781 244.814 156.024 245.468 154.726C245.612 154.416 245.817 154.14 246.072 153.917C246.326 153.694 246.623 153.528 246.944 153.431C247.265 153.334 247.602 153.307 247.934 153.352C248.265 153.398 248.584 153.514 248.869 153.695C250.558 154.83 250.663 158.565 250.184 160.344C250.149 160.486 249.402 162.406 249.243 162.74L249.473 162.513C250.711 161.139 251.828 159.655 252.811 158.078C253.365 157.211 253.846 156.356 254.3 155.512C253.766 155.145 251.359 153.437 250.622 152.213C249.885 150.989 249.328 149.343 249.839 147.982C249.948 147.656 250.123 147.359 250.352 147.107C250.581 146.856 250.859 146.657 251.168 146.524C251.476 146.39 251.809 146.325 252.144 146.332C252.479 146.339 252.809 146.419 253.112 146.566C254.91 147.504 255.411 151.206 255.129 153.032C255.131 153.13 254.848 154.123 254.625 154.839C254.821 154.456 255.032 154.061 255.218 153.689C255.908 152.292 256.451 150.952 256.927 149.798C257.193 149.126 257.439 148.513 257.627 147.939C257.285 147.302 255.957 144.699 255.847 143.298C255.738 141.896 255.989 140.136 257.05 139.169C257.293 138.933 257.582 138.751 257.898 138.637C258.214 138.523 258.55 138.478 258.884 138.505C259.218 138.533 259.543 138.633 259.837 138.798C260.131 138.963 260.388 139.189 260.591 139.463C261.769 141.144 260.552 144.663 259.487 146.152C259.394 146.283 257.719 148.118 257.703 148.085L257.703 148.047C257.519 148.594 257.311 149.2 257.071 149.845C256.621 151.032 256.1 152.371 255.436 153.789C254.74 155.325 253.956 156.818 253.089 158.259C252.13 159.881 251.029 161.408 249.8 162.824L249.753 162.874C250.278 162.562 251.713 161.759 251.855 161.703C253.518 161.005 257.136 160.667 258.439 162.254C258.647 162.523 258.798 162.834 258.881 163.168C258.964 163.501 258.978 163.848 258.922 164.187C258.865 164.526 258.74 164.849 258.554 165.135C258.368 165.421 258.126 165.663 257.842 165.846C256.668 166.683 254.923 166.468 253.651 166.023Z" fill="#2E2E2E"/>
<path d="M227.13 141.236C227.093 141.237 227.626 138.782 227.672 138.629C228.256 136.881 230.396 133.86 232.409 133.903C232.743 133.92 233.07 134.009 233.369 134.164C233.668 134.32 233.932 134.538 234.143 134.805C234.354 135.072 234.509 135.381 234.596 135.713C234.684 136.045 234.702 136.393 234.651 136.732C234.48 138.187 233.184 139.401 232.023 140.092C230.658 140.905 227.13 141.236 227.13 141.236Z" fill="#2E2E2E"/>
</g>
<path d="M83.8233 94.4949C82.0143 91.0075 81.2559 88.5085 81.2559 87.9304C81.2559 86.7865 83.7425 86.1027 83.7425 86.1027C87.6215 84.0513 105.867 87.0165 114.079 88.3842C118.676 89.1856 123.326 89.6427 127.991 89.7518C127.991 89.7518 129.129 88.8442 130.478 87.7003C131.827 86.5565 138.23 79.0346 140.741 78.3757C143.253 77.7167 145.528 79.2895 145.528 79.2895C145.528 79.2895 149.637 81.7761 148.947 82.2547C148.257 82.7334 138.23 91.3743 135.718 92.9719C133.207 94.5695 127.966 93.8857 123.403 94.7995C119.475 95.5828 103.561 96.5526 99.9115 96.851C97.171 97.501 94.2948 97.2615 91.6995 96.1672" fill="white"/>
<path d="M145.571 79.2646C145.571 79.2646 143.29 77.6669 140.785 78.3507C138.279 79.0345 131.889 86.5627 130.521 87.6754C129.154 88.7882 128.035 89.7269 128.035 89.7269C123.37 89.6178 118.719 89.1606 114.122 88.3592C105.91 86.9916 87.6649 84.0077 83.7858 86.0778C83.7858 86.0778 81.2992 86.7616 81.2992 87.9054C81.3856 88.5449 81.5506 89.1713 81.7903 89.7704L82.1322 89.8947C82.1322 89.8947 86.6889 89.416 96.5233 89.6523C106.358 89.8885 129.104 91.2375 130.565 91.7659C131.186 92.0021 135.594 91.0074 140.48 89.2793C144.21 86.2394 148.592 82.4412 149.034 82.1739C149.68 81.7698 145.571 79.2646 145.571 79.2646Z" fill="#F89E31"/>
<path opacity="0.5" d="M145.571 79.2646C145.571 79.2646 143.29 77.6669 140.785 78.3507C138.279 79.0345 131.889 86.5627 130.521 87.6754C129.154 88.7882 128.035 89.7269 128.035 89.7269C123.37 89.6178 118.719 89.1606 114.122 88.3592C105.91 86.9916 87.6649 84.0077 83.7858 86.0778C83.7858 86.0778 81.2992 86.7616 81.2992 87.9054C81.3856 88.5449 81.5506 89.1713 81.7903 89.7704L82.1322 89.8947C82.1322 89.8947 86.6889 89.416 96.5233 89.6523C106.358 89.8885 129.104 91.2375 130.565 91.7659C131.186 92.0021 135.594 91.0074 140.48 89.2793C144.21 86.2394 148.592 82.4412 149.034 82.1739C149.68 81.7698 145.571 79.2646 145.571 79.2646Z" fill="white"/>
<path d="M83.8233 94.4949C82.0143 91.0075 81.2559 88.5085 81.2559 87.9304C81.2559 86.7865 83.7425 86.1027 83.7425 86.1027C87.6215 84.0513 105.867 87.0165 114.079 88.3842C118.676 89.1856 123.326 89.6427 127.991 89.7518C127.991 89.7518 129.129 88.8442 130.478 87.7003C131.827 86.5565 138.23 79.0346 140.741 78.3757C143.253 77.7167 145.528 79.2895 145.528 79.2895C145.528 79.2895 149.637 81.7761 148.947 82.2547C148.257 82.7334 138.23 91.3743 135.718 92.9719C133.207 94.5695 127.966 93.8857 123.403 94.7995C119.475 95.5828 103.561 96.5526 99.9115 96.851C97.171 97.501 94.2948 97.2615 91.6995 96.1672" stroke="#2E2E2E" stroke-linecap="round" stroke-linejoin="round"/>
<path d="M173.906 114.773C174.319 113.99 174.937 113.334 175.696 112.877C176.454 112.42 177.323 112.18 178.208 112.181H219.672C219.672 112.181 222.668 112.181 221.773 117.875C220.878 123.569 208.581 158.338 205.61 168.85C202.638 179.362 202.011 201.517 202.011 201.517H152.279C152.279 201.517 156.22 148.535 173.906 114.773Z" fill="white"/>
<path opacity="0.16" d="M192.58 112.181H178.208C177.322 112.18 176.454 112.42 175.696 112.877C174.937 113.334 174.318 113.99 173.906 114.773C156.22 148.535 152.235 201.499 152.235 201.499H174.54L180.042 180.605L202.98 185.336C203.142 183.583 203.328 181.799 203.546 180.04L203.042 174.445C203.042 174.445 198.343 169.503 196.863 168.266C195.384 167.028 196.366 164.797 196.117 155.155C195.869 145.513 187.215 138.582 183.995 132.645C180.775 126.709 185.73 122.997 190.181 117.061C191.766 114.916 192.412 113.337 192.58 112.181Z" fill="#121212"/>
<path d="M173.906 114.773C174.319 113.99 174.937 113.334 175.696 112.877C176.454 112.42 177.323 112.18 178.208 112.181H219.672C219.672 112.181 222.668 112.181 221.773 117.875C220.878 123.569 208.581 158.338 205.61 168.85C202.638 179.362 202.011 201.517 202.011 201.517H152.279C152.279 201.517 156.22 148.535 173.906 114.773Z" stroke="#2E2E2E" stroke-linecap="round" stroke-linejoin="round"/>
<path d="M214.976 123.388C210.786 133.166 201.921 171.876 200.479 202.815H204.483C204.483 202.815 205.104 180.635 208.082 170.148C211.06 159.661 223.368 124.886 224.245 119.173C225.121 113.46 222.144 113.479 222.144 113.479C222.144 113.479 218.339 115.549 214.976 123.388Z" fill="#2E2E2E" stroke="#2E2E2E" stroke-linecap="round" stroke-linejoin="round"/>
<path d="M139.641 102.527C139.641 102.527 133.026 98.6475 130.521 91.8094C128.016 84.9713 150.134 74.0179 159.739 73.334C169.343 72.6502 172.053 75.1555 177.766 84.965C183.479 94.7746 187.346 108.227 184.381 114.841C181.415 121.456 176.399 123.053 180.029 128.518C183.659 133.982 193.942 149.498 193.258 156.796C192.574 164.094 185.506 170.472 175.23 171.169C164.954 171.865 151.278 165.692 139.877 155.628C128.476 145.563 131.435 130.762 135.525 125.975C139.616 121.188 145.789 119.361 146.243 114.574C146.696 109.787 139.641 102.527 139.641 102.527Z" fill="#2E2E2E" stroke="#2E2E2E" stroke-linecap="round" stroke-linejoin="round"/>
<path d="M167.832 91.7037C171.345 98.2434 175.74 107.002 177.114 112.293C179.513 121.555 167.167 127.386 170.592 131.843" stroke="white" stroke-linecap="round" stroke-linejoin="round"/>
<path d="M163.046 83.1375C163.046 83.1375 164.413 85.4687 166.303 88.9002" stroke="white" stroke-linecap="round" stroke-linejoin="round"/>
<path d="M181.471 99.5924C181.876 100.818 182.139 102.086 182.255 103.372" stroke="white" stroke-linecap="round" stroke-linejoin="round"/>
<path d="M165.421 79.7369C165.421 79.7369 176.225 87.7188 180.539 97.2735" stroke="white" stroke-linecap="round" stroke-linejoin="round"/>
<path d="M150.426 85.7235C142.712 87.8868 131.615 91.3991 132.517 93.4257" stroke="white" stroke-linecap="round" stroke-linejoin="round"/>
<path d="M157.557 83.8212C157.557 83.8212 155.909 84.2315 153.454 84.8904" stroke="white" stroke-linecap="round" stroke-linejoin="round"/>
<path d="M148.014 79.7929C152.433 78.4003 157.062 77.7902 161.691 77.9902" stroke="white" stroke-linecap="round" stroke-linejoin="round"/>
<path d="M144.869 81.0797C145.567 80.7157 146.29 80.4 147.032 80.1348" stroke="white" stroke-linecap="round" stroke-linejoin="round"/>
<path d="M81.2558 87.9303C81.253 87.9738 81.253 88.0174 81.2558 88.0608C81.253 88.0174 81.253 87.9738 81.2558 87.9303ZM83.8232 94.4949C82.7762 92.5776 81.9424 90.5514 81.3366 88.4525C81.9394 90.5524 82.7734 92.5789 83.8232 94.4949ZM81.2682 88.0981C81.2682 88.1354 81.2682 88.1789 81.2682 88.2349C81.2807 88.1789 81.2745 88.1354 81.2682 88.0981ZM81.2993 88.2722C81.307 88.3332 81.3195 88.3935 81.3366 88.4525C81.3195 88.3935 81.307 88.3332 81.2993 88.2722ZM83.8232 94.4887C86.1481 98.8923 89.0407 102.972 92.4268 106.623C100.639 115.519 124.361 138.787 126.617 140.385C128.874 141.982 128.215 146.539 126.617 151.102C125.02 155.665 119.089 162.292 119.319 169.577C119.549 176.863 121.806 188.053 121.601 190.334C121.395 192.615 115.689 200.374 115.689 200.374H174.534C174.534 200.374 167.198 191.049 167.198 187.86C167.198 184.671 177.269 143.81 177.723 140.845C178.177 137.88 176.355 135.828 172.706 135.598C169.057 135.368 155.145 132.403 154.461 130.121C153.777 127.84 158.11 119.174 158.11 119.174L144.434 119.858C144.434 119.858 143.75 125.789 142.836 126.932C141.922 128.076 140.555 125.789 137.359 124.197C134.164 122.606 128.035 121.232 125.728 119.404C123.422 117.577 101.553 97.025 101.553 97.025" fill="white"/>
<path d="M129.222 121.164C130.36 123.153 131.497 124.949 131.497 124.949C131.497 124.949 135.333 127.106 136.29 127.106C137.247 127.106 143.004 130.215 143.004 130.215C143.004 130.215 147.803 129.015 146.112 124.937C145.579 123.893 144.905 122.927 144.11 122.065C143.825 123.874 143.364 126.242 142.824 126.92C141.91 128.058 140.542 125.776 137.347 124.185C135.277 123.153 131.926 122.208 129.222 121.164Z" fill="#F89E31"/>
<path d="M117.51 111.932C110.467 105.411 101.553 97.0498 101.553 97.0498L96.3681 96.3038L95.7464 96.652C95.7464 96.652 110.38 109.601 113.494 111.043C114.754 111.622 116.124 111.925 117.51 111.932Z" fill="#F89E31"/>
<path d="M124.889 118.683L124.33 118.186C124.616 118.658 124.777 118.957 124.777 118.957L124.889 118.683Z" fill="#F89E31"/>
<g opacity="0.5">
<path opacity="0.5" d="M129.222 121.164C130.36 123.153 131.497 124.949 131.497 124.949C131.497 124.949 135.333 127.106 136.29 127.106C137.247 127.106 143.004 130.215 143.004 130.215C143.004 130.215 147.803 129.015 146.112 124.937C145.579 123.893 144.905 122.927 144.11 122.065C143.825 123.874 143.364 126.242 142.824 126.92C141.91 128.058 140.542 125.776 137.347 124.185C135.277 123.153 131.926 122.208 129.222 121.164Z" fill="white"/>
<path opacity="0.5" d="M117.51 111.932C110.467 105.411 101.553 97.0498 101.553 97.0498L96.3681 96.3038L95.7464 96.652C95.7464 96.652 110.38 109.601 113.494 111.043C114.754 111.622 116.124 111.925 117.51 111.932Z" fill="white"/>
<path opacity="0.5" d="M124.889 118.683L124.33 118.186C124.616 118.658 124.777 118.957 124.777 118.957L124.889 118.683Z" fill="white"/>
</g>
<path d="M83.8232 94.4887C86.1481 98.8923 89.0407 102.972 92.4268 106.623C100.639 115.519 124.361 138.787 126.617 140.385C128.874 141.982 128.215 146.539 126.617 151.102C125.02 155.665 119.089 162.292 119.319 169.577C119.549 176.863 121.806 188.053 121.601 190.334C121.395 192.615 115.689 200.374 115.689 200.374H174.534C174.534 200.374 167.198 191.049 167.198 187.86C167.198 184.671 177.269 143.81 177.723 140.845C178.177 137.88 176.355 135.828 172.706 135.598C169.057 135.368 155.145 132.403 154.461 130.121C153.777 127.84 158.11 119.174 158.11 119.174L144.434 119.858C144.434 119.858 143.75 125.789 142.836 126.932C141.922 128.076 140.555 125.789 137.359 124.197C134.164 122.606 128.035 121.232 125.728 119.404C123.422 117.577 101.553 97.025 101.553 97.025M81.2558 87.9303C81.253 87.9738 81.253 88.0174 81.2558 88.0608C81.253 88.0174 81.253 87.9738 81.2558 87.9303V87.9303ZM83.8232 94.4949C82.7762 92.5776 81.9424 90.5514 81.3366 88.4525C81.9394 90.5524 82.7734 92.5789 83.8232 94.4949V94.4949ZM81.2682 88.0981C81.2682 88.1354 81.2682 88.1789 81.2682 88.2349C81.2807 88.1789 81.2745 88.1354 81.2682 88.0981V88.0981ZM81.2993 88.2722C81.307 88.3332 81.3195 88.3935 81.3366 88.4525C81.3195 88.3935 81.307 88.3332 81.2993 88.2722Z" stroke="#2E2E2E" stroke-linecap="round" stroke-linejoin="round"/>
<path d="M101.553 97.0498C101.553 97.0498 94.2669 97.1865 90.2013 93.8359" stroke="#2E2E2E" stroke-linecap="round" stroke-linejoin="round"/>
<path d="M154.467 130.121C153.783 127.846 158.116 119.174 158.116 119.174L144.44 119.858C144.44 119.858 143.756 125.789 142.842 126.932C141.928 128.076 140.561 125.789 137.365 124.197C137.123 124.073 136.856 123.955 136.582 123.837L135.755 136.835C135.755 136.835 136.955 149.424 151.34 147.03C157.165 146.06 163.381 140.863 168.746 135.02C163.226 134.007 154.989 131.868 154.467 130.121Z" fill="white"/>
<path d="M154.082 120.896C154.082 120.896 153.255 125.534 152.59 130.662C151.925 135.791 151.433 139.608 151.433 139.608L154.467 130.121L157.886 120.069C157.886 120.069 154.579 120.069 154.082 120.896Z" fill="#F89E31"/>
<path opacity="0.5" d="M154.082 120.896C154.082 120.896 153.255 125.534 152.59 130.662C151.925 135.791 151.433 139.608 151.433 139.608L154.467 130.121L157.886 120.069C157.886 120.069 154.579 120.069 154.082 120.896Z" fill="white"/>
<path d="M154.467 130.121C153.783 127.846 158.116 119.174 158.116 119.174L144.44 119.858C144.44 119.858 143.756 125.789 142.842 126.932C141.928 128.076 140.561 125.789 137.365 124.197C137.123 124.073 136.856 123.955 136.582 123.837L135.755 136.835C135.755 136.835 136.955 149.424 151.34 147.03C157.165 146.06 163.381 140.863 168.746 135.02C163.226 134.007 154.989 131.868 154.467 130.121Z" stroke="#2E2E2E" stroke-linecap="round" stroke-linejoin="round"/>
<path d="M142.836 126.932C141.922 128.07 140.555 125.788 137.359 124.197C135.345 123.184 132.137 122.264 129.483 121.269C128.731 119.485 127.736 117.16 127.096 115.755C125.958 113.268 124.131 114.841 124.131 114.841C123.177 113.757 122.407 112.524 121.849 111.192C120.712 108.706 118.884 108.911 116.379 108.457C113.873 108.003 108.621 103.21 108.621 103.21C108.621 103.21 106.165 101.345 105.152 100.419C103.971 102.744 101.142 106.834 95.0252 109.389C104.779 119.578 124.566 138.936 126.642 140.391C128.924 141.982 128.24 146.545 126.642 151.108C125.044 155.671 119.114 162.298 119.344 169.583C119.574 176.869 121.831 188.059 121.625 190.34C121.42 192.373 116.87 198.745 115.881 200.112L118.2 200.373H130.273C130.204 194.256 130.21 169.291 134.394 159.345C139.187 147.913 142.836 126.932 142.836 126.932Z" fill="#F89E31"/>
<path opacity="0.16" d="M137.359 124.197C135.345 123.184 132.138 122.264 129.483 121.269C128.731 119.485 127.736 117.16 127.096 115.755C125.958 113.268 124.131 114.841 124.131 114.841C123.177 113.757 122.407 112.524 121.849 111.192C120.712 108.706 118.884 108.911 116.379 108.457C113.874 108.003 108.621 103.21 108.621 103.21C108.621 103.21 106.165 101.345 105.152 100.419C104.646 101.406 104.045 102.341 103.355 103.21C107.433 106.66 111.934 110.316 113.507 111.043C116.615 112.479 117.342 111.279 119.723 112.721C122.104 114.164 124.759 118.938 124.759 118.938C124.759 118.938 126.201 115.096 127.401 117.738C128.6 120.38 131.479 124.931 131.479 124.931C131.479 124.931 135.314 127.088 136.272 127.088C137.024 127.088 140.71 129.002 142.277 129.829C142.625 128.008 142.817 126.914 142.817 126.914C141.922 128.07 140.555 125.788 137.359 124.197Z" fill="#121212"/>
<path d="M142.836 126.932C141.922 128.07 140.555 125.788 137.359 124.197C135.345 123.184 132.137 122.264 129.483 121.269C128.731 119.485 127.736 117.16 127.096 115.755C125.958 113.268 124.131 114.841 124.131 114.841C123.177 113.757 122.407 112.524 121.849 111.192C120.712 108.706 118.884 108.911 116.379 108.457C113.873 108.003 108.621 103.21 108.621 103.21C108.621 103.21 106.165 101.345 105.152 100.419C103.971 102.744 101.142 106.834 95.0252 109.389C104.779 119.578 124.566 138.936 126.642 140.391C128.924 141.982 128.24 146.545 126.642 151.108C125.044 155.671 119.114 162.298 119.344 169.583C119.574 176.869 121.831 188.059 121.625 190.34C121.42 192.373 116.87 198.745 115.881 200.112L118.2 200.373H130.273C130.204 194.256 130.21 169.291 134.394 159.345C139.187 147.913 142.836 126.932 142.836 126.932Z" stroke="#2E2E2E" stroke-linecap="round" stroke-linejoin="round"/>
<path d="M142.998 126.137C142.998 126.137 140.163 125.266 138.416 126.796C136.669 128.325 134.065 136.17 132.529 144.68C131.583 149.635 132.236 154.761 134.394 159.32C134.394 159.32 137.981 149.915 139.069 145.333C140.157 140.752 142.998 126.137 142.998 126.137Z" fill="#F89E31"/>
<path opacity="0.16" d="M137.558 127.523C137.558 127.523 139.61 127.026 140.455 127.312C141.167 127.617 141.832 128.021 142.432 128.511L142.998 126.137C142.149 125.703 141.186 125.544 140.244 125.683C138.833 125.969 137.558 127.523 137.558 127.523Z" fill="#121212"/>
<path d="M142.998 126.137C142.998 126.137 140.163 125.266 138.416 126.796C136.669 128.325 134.065 136.17 132.529 144.68C131.583 149.635 132.236 154.761 134.394 159.32C134.394 159.32 137.981 149.915 139.069 145.333C140.157 140.752 142.998 126.137 142.998 126.137Z" stroke="#2E2E2E" stroke-linecap="round" stroke-linejoin="round"/>
<path d="M123.907 126.883L127.556 141.709L119.344 123.004" stroke="#2E2E2E" stroke-linecap="round" stroke-linejoin="round"/>
<path d="M147.946 200.374H174.54C174.54 200.374 167.205 191.049 167.205 187.86C167.205 184.671 177.275 143.81 177.729 140.845C178.183 137.88 176.361 135.828 172.712 135.598C169.063 135.368 155.151 132.403 154.467 130.121C154.467 130.121 149.22 148.597 147.399 161.142C145.832 171.902 147.455 194.232 147.946 200.374Z" fill="#F89E31"/>
<path opacity="0.16" d="M172.712 135.598C169.722 135.412 159.844 133.385 155.996 131.408L157.395 134.641C159.929 135.985 162.655 136.933 165.476 137.451C170.108 138.277 174.416 138.116 177.232 142.256L177.368 142.461C177.543 141.665 177.661 141.106 177.698 140.845C178.189 137.88 176.361 135.828 172.712 135.598Z" fill="#121212"/>
<path d="M147.946 200.374H174.54C174.54 200.374 167.205 191.049 167.205 187.86C167.205 184.671 177.275 143.81 177.729 140.845C178.183 137.88 176.361 135.828 172.712 135.598C169.063 135.368 155.151 132.403 154.467 130.121C154.467 130.121 149.22 148.597 147.399 161.142C145.832 171.902 147.455 194.232 147.946 200.374Z" stroke="#2E2E2E" stroke-linecap="round" stroke-linejoin="round"/>
<path d="M154.467 130.121C154.467 130.121 147.43 152.501 147.399 161.142C147.399 161.142 157.395 149.038 158.7 140.534C160.006 132.03 154.467 130.121 154.467 130.121Z" fill="#F89E31"/>
<path opacity="0.16" d="M153.255 132.981C154.312 132.946 155.362 133.168 156.314 133.63C157.266 134.091 158.092 134.777 158.719 135.629C158.719 135.629 157.339 131.57 154.467 130.121L153.255 132.981Z" fill="#121212"/>
<path d="M154.467 130.121C154.467 130.121 147.43 152.501 147.399 161.142C147.399 161.142 157.395 149.038 158.7 140.534C160.006 132.03 154.467 130.121 154.467 130.121Z" stroke="#2E2E2E" stroke-linecap="round" stroke-linejoin="round"/>
<path d="M229.593 196.165C229.593 196.165 234.746 196.376 238.122 196.861C240.373 197.167 242.639 197.347 244.91 197.402C244.91 197.402 243.045 193.635 241.056 192.572C239.067 191.509 235.461 189.607 232.44 190.029C229.419 190.452 225.098 193.498 225.459 194.468C225.819 195.438 227.43 195.873 229.593 196.165Z" fill="white"/>
<path d="M229.593 196.165C229.593 196.165 234.746 196.376 238.122 196.861C240.373 197.167 242.639 197.347 244.91 197.402C244.91 197.402 243.045 193.635 241.056 192.572C239.067 191.509 235.461 189.607 232.44 190.029C229.419 190.452 225.098 193.498 225.459 194.468C225.819 195.438 227.43 195.873 229.593 196.165Z" fill="#F89E31"/>
<path opacity="0.5" d="M229.593 196.165C229.593 196.165 234.746 196.376 238.122 196.861C240.373 197.167 242.639 197.347 244.91 197.402C244.91 197.402 243.045 193.635 241.056 192.572C239.067 191.509 235.461 189.607 232.44 190.029C229.419 190.452 225.098 193.498 225.459 194.468C225.819 195.438 227.43 195.873 229.593 196.165Z" fill="white"/>
<path d="M229.593 196.165C229.593 196.165 234.746 196.376 238.122 196.861C240.373 197.167 242.639 197.347 244.91 197.402C244.91 197.402 243.045 193.635 241.056 192.572C239.067 191.509 235.461 189.607 232.44 190.029C229.419 190.452 225.098 193.498 225.459 194.468C225.819 195.438 227.43 195.873 229.593 196.165Z" stroke="#2E2E2E" stroke-linecap="round" stroke-linejoin="round"/>
<path d="M238.153 194.623C238.153 194.623 242.237 192.504 243.257 192.535C244.276 192.566 251.052 197.147 250.716 197.881C250.488 198.221 250.159 198.481 249.776 198.624C249.392 198.766 248.973 198.785 248.578 198.677C247.826 198.322 243.263 196.383 243.263 196.383L240.279 197.085L238.153 194.623Z" fill="white"/>
<path d="M238.153 194.623C238.153 194.623 242.237 192.504 243.257 192.535C244.276 192.566 251.052 197.147 250.716 197.881C250.381 198.614 248.777 199.211 248.578 198.677C248.379 198.142 243.263 196.383 243.263 196.383L240.279 197.085L238.153 194.623Z" fill="#F89E31"/>
<path opacity="0.5" d="M238.153 194.623C238.153 194.623 242.237 192.504 243.257 192.535C244.276 192.566 251.052 197.147 250.716 197.881C250.381 198.614 248.777 199.211 248.578 198.677C248.379 198.142 243.263 196.383 243.263 196.383L240.279 197.085L238.153 194.623Z" fill="white"/>
<path d="M238.153 194.623C238.153 194.623 242.237 192.504 243.257 192.535C244.276 192.566 251.052 197.147 250.716 197.881C250.488 198.221 250.159 198.481 249.776 198.624C249.392 198.766 248.973 198.785 248.578 198.677C247.826 198.322 243.263 196.383 243.263 196.383L240.279 197.085L238.153 194.623Z" stroke="#2E2E2E" stroke-linecap="round" stroke-linejoin="round"/>
<path d="M235.237 191.136C235.237 191.136 240.683 190.962 241.765 191.509C242.846 192.056 247.732 200.436 246.999 201.045C246.265 201.654 244.239 201.474 244.301 200.796C244.363 200.119 239.8 195.63 239.8 195.63L236.251 194.853L235.237 191.136Z" fill="white"/>
<path d="M235.237 191.136C235.237 191.136 240.683 190.962 241.765 191.509C242.846 192.056 247.732 200.436 246.999 201.045C246.265 201.654 244.239 201.474 244.301 200.796C244.363 200.119 239.8 195.63 239.8 195.63L236.251 194.853L235.237 191.136Z" fill="#F89E31"/>
<path opacity="0.5" d="M235.237 191.136C235.237 191.136 240.683 190.962 241.765 191.509C242.846 192.056 247.732 200.436 246.999 201.045C246.265 201.654 244.239 201.474 244.301 200.796C244.363 200.119 239.8 195.63 239.8 195.63L236.251 194.853L235.237 191.136Z" fill="white"/>
<path d="M235.237 191.136C235.237 191.136 240.683 190.962 241.765 191.509C242.846 192.056 247.732 200.436 246.999 201.045C246.265 201.654 244.239 201.474 244.301 200.796C244.363 200.119 239.8 195.63 239.8 195.63L236.251 194.853L235.237 191.136Z" stroke="#2E2E2E" stroke-linecap="round" stroke-linejoin="round"/>
<path d="M232.011 190.011C232.011 190.011 237.525 189.831 238.619 190.39C239.713 190.949 244.661 199.422 243.915 200.044C243.17 200.666 241.131 200.473 241.193 199.789C241.255 199.105 236.636 194.561 236.636 194.561L233.043 193.772L232.011 190.011Z" fill="white"/>
<path d="M232.011 190.011C232.011 190.011 237.525 189.831 238.619 190.39C239.713 190.949 244.661 199.422 243.915 200.044C243.17 200.666 241.131 200.473 241.193 199.789C241.255 199.105 236.636 194.561 236.636 194.561L233.043 193.772L232.011 190.011Z" fill="#F89E31"/>
<path opacity="0.5" d="M232.011 190.011C232.011 190.011 237.525 189.831 238.619 190.39C239.713 190.949 244.661 199.422 243.915 200.044C243.17 200.666 241.131 200.473 241.193 199.789C241.255 199.105 236.636 194.561 236.636 194.561L233.043 193.772L232.011 190.011Z" fill="white"/>
<path d="M232.011 190.011C232.011 190.011 237.525 189.831 238.619 190.39C239.713 190.949 244.661 199.422 243.915 200.044C243.17 200.666 241.131 200.473 241.193 199.789C241.255 199.105 236.636 194.561 236.636 194.561L233.043 193.772L232.011 190.011Z" stroke="#2E2E2E" stroke-linecap="round" stroke-linejoin="round"/>
<path d="M169.318 158.419C173.309 164.567 181.322 180.145 183.659 181.898C187.308 184.634 211.702 191.273 214.052 193.088C216.401 194.903 216.24 196.725 218.465 197.39C220.691 198.055 229.033 199.963 232.216 200.262C235.399 200.56 233.975 198.589 233.975 198.589L228.548 194.86L233.279 193.691C233.279 193.691 238.022 199.398 238.911 199.708C239.8 200.019 241.367 199.708 241.267 199.006C241.093 197.881 236.033 188.674 234.237 188.283C232.44 187.891 221.536 189.402 221.536 189.402C221.536 189.402 198.666 173.979 198.256 173.431C198.256 173.431 196.888 169.552 195.769 167.955C194.65 166.357 193.941 166.817 193.941 166.817C193.941 166.817 194.401 164.76 193.718 164.076L190.069 160.427L189.938 160.601C189.316 159.357 188.695 157.94 188.011 156.324C186.102 151.829 179.345 139.216 178.208 137.395C177.356 136.033 170.219 135.057 166.601 134.647" fill="#F89E31"/>
<path opacity="0.16" d="M185.207 158.81C188.191 161.459 187.197 161.459 186.531 163.783C185.866 166.108 187.029 162.957 189.845 163.125C192.661 163.292 191.834 166.929 191.498 167.594C191.163 168.259 194.98 169.086 194.314 170.572C193.649 172.058 189.845 174.215 187.694 176.372C185.543 178.529 193.32 172.891 195.968 172.729C196.776 172.673 197.441 172.779 198.001 172.766C197.414 171.103 196.66 169.503 195.75 167.992C194.607 166.394 193.923 166.854 193.923 166.854C193.923 166.854 194.383 164.797 193.699 164.113L190.05 160.464L189.919 160.638C189.298 159.395 188.676 157.977 187.992 156.361C186.084 151.867 179.327 139.253 178.189 137.432C177.337 136.07 170.201 135.095 166.583 134.684L166.912 137.562L166.993 137.625C166.993 137.625 171.463 138.451 172.955 138.619C174.447 138.787 176.268 140.105 176.1 141.106C175.932 142.107 171.631 146.57 172.955 146.906C174.279 147.241 175.771 143.592 177.263 144.09C178.755 144.587 182.205 156.162 185.207 158.81Z" fill="#121212"/>
<path d="M169.318 158.419C173.309 164.567 181.322 180.145 183.659 181.898C187.308 184.634 211.702 191.273 214.052 193.088C216.401 194.903 216.24 196.725 218.465 197.39C220.691 198.055 229.033 199.963 232.216 200.262C235.399 200.56 233.975 198.589 233.975 198.589L228.548 194.86L233.279 193.691C233.279 193.691 238.022 199.398 238.911 199.708C239.8 200.019 241.367 199.708 241.267 199.006C241.093 197.881 236.033 188.674 234.237 188.283C232.44 187.891 221.536 189.402 221.536 189.402C221.536 189.402 198.666 173.979 198.256 173.431C198.256 173.431 196.888 169.552 195.769 167.955C194.65 166.357 193.941 166.817 193.941 166.817C193.941 166.817 194.401 164.76 193.718 164.076L190.069 160.427L189.938 160.601C189.316 159.357 188.695 157.94 188.011 156.324C186.102 151.829 179.345 139.216 178.208 137.395C177.356 136.033 170.219 135.057 166.601 134.647" stroke="#2E2E2E" stroke-linecap="round" stroke-linejoin="round"/>
<path d="M169.38 149.983C169.213 150.542 169.07 151.102 168.958 151.674" stroke="#2E2E2E" stroke-linecap="round" stroke-linejoin="round"/>
<path d="M175.423 139.695C173.469 141.921 171.822 144.399 170.524 147.061" stroke="#2E2E2E" stroke-linecap="round" stroke-linejoin="round"/>
<path d="M184.555 174.992C186.233 172.505 188.906 169.353 191.853 168.452" stroke="#2E2E2E" stroke-linecap="round" stroke-linejoin="round"/>
<path d="M182.696 178.05C182.696 178.05 182.994 177.466 183.529 176.583" stroke="#2E2E2E" stroke-linecap="round" stroke-linejoin="round"/>
<path d="M182.696 174.121C182.696 174.121 185.748 166.488 188.8 164.523C191.853 162.559 190.106 166.488 190.106 166.488" stroke="#2E2E2E" stroke-linecap="round" stroke-linejoin="round"/>
<path d="M214.052 193.094C216.408 194.916 216.24 196.731 218.465 197.396C220.691 198.061 229.033 199.97 232.216 200.268C235.399 200.566 233.976 198.596 233.976 198.596L228.549 194.866L233.279 193.697C233.279 193.697 238.022 199.404 238.911 199.715C239.8 200.025 241.491 200.137 241.267 199.012C240.832 196.836 236.033 188.68 234.237 188.289C232.44 187.897 221.536 189.408 221.536 189.408C221.536 189.408 200.705 175.11 198.424 173.562C189.578 174.414 185.369 179.045 183.597 181.824L183.66 181.873C187.309 184.634 211.702 191.273 214.052 193.094Z" fill="white"/>
<path d="M241.261 199.037C240.13 196.271 236.027 188.705 234.23 188.314C232.434 187.922 221.53 189.433 221.53 189.433C221.53 189.433 200.699 175.135 198.417 173.587C196.096 173.789 193.817 174.34 191.66 175.222C194.949 177.087 216.868 189.52 219.634 190.073C222.568 190.695 232.359 189.085 234.081 190.241C235.175 190.974 238.433 196.14 240.633 199.808C241.261 199.715 241.491 199.597 241.261 199.037Z" fill="#F89E31"/>
<path opacity="0.5" d="M241.261 199.037C239.496 195.077 236.027 188.705 234.23 188.314C232.434 187.922 221.53 189.433 221.53 189.433C221.53 189.433 200.699 175.135 198.417 173.587C196.096 173.789 193.817 174.34 191.66 175.222C194.949 177.087 216.868 189.52 219.634 190.073C222.568 190.695 232.359 189.085 234.081 190.241C235.175 190.974 238.433 196.14 240.633 199.808C241.261 199.715 241.51 199.59 241.261 199.037Z" fill="white"/>
<path d="M214.052 193.094C216.408 194.916 216.24 196.731 218.465 197.396C220.691 198.061 229.033 199.97 232.216 200.268C235.399 200.566 233.976 198.596 233.976 198.596L228.549 194.866L233.279 193.697C233.279 193.697 238.022 199.404 238.911 199.715C239.8 200.025 241.491 200.137 241.267 199.012C240.832 196.836 236.033 188.68 234.237 188.289C232.44 187.897 221.536 189.408 221.536 189.408C221.536 189.408 200.705 175.11 198.424 173.562C189.578 174.414 185.369 179.045 183.597 181.824L183.66 181.873C187.309 184.634 211.702 191.273 214.052 193.094Z" stroke="#2E2E2E" stroke-linecap="round" stroke-linejoin="round"/>
<path d="M159.111 84.5423L140.387 92.3564C140.16 95.6471 139.345 98.8705 137.981 101.874C135.768 106.555 137.061 115.413 139.187 120.194C141.313 124.974 150.681 123.103 154.107 122.506C156.43 122.064 158.705 121.4 160.901 120.523C161.901 120.909 162.983 121.033 164.044 120.885C165.106 120.737 166.112 120.322 166.968 119.678C166.968 119.678 156.947 91.5482 159.111 84.5423Z" fill="white"/>
<path d="M159.111 84.5423L140.387 92.3564C140.16 95.6471 139.345 98.8705 137.981 101.874C135.768 106.555 137.061 115.413 139.187 120.194C139.543 120.962 140.115 121.611 140.834 122.059V121.698C140.834 121.698 137.359 113.088 138.018 108.121C138.677 103.154 141.5 100.662 141.829 97.5222C142.159 94.3829 141.991 92.891 148.288 90.5722C154.585 88.2535 157.227 86.1026 157.886 88.4151C158.545 90.7277 161.2 105.97 163.021 109.613C164.842 113.256 164.675 117.073 161.865 118.72C159.025 120.425 155.982 121.766 152.807 122.711L154.131 122.481C156.455 122.039 158.73 121.375 160.926 120.498C161.926 120.884 163.008 121.008 164.069 120.86C165.13 120.712 166.137 120.297 166.993 119.653C166.993 119.653 156.947 91.5482 159.111 84.5423Z" fill="#F89E31"/>
<path opacity="0.5" d="M159.111 84.5423L140.387 92.3564C140.16 95.6471 139.345 98.8705 137.981 101.874C135.768 106.555 137.061 115.413 139.187 120.194C139.543 120.962 140.115 121.611 140.834 122.059V121.698C140.834 121.698 137.359 113.088 138.018 108.121C138.677 103.154 141.5 100.662 141.829 97.5222C142.159 94.3829 141.991 92.891 148.288 90.5722C154.585 88.2535 157.227 86.1026 157.886 88.4151C158.545 90.7277 161.2 105.97 163.021 109.613C164.842 113.256 164.675 117.073 161.865 118.72C159.025 120.425 155.982 121.766 152.807 122.711L154.131 122.481C156.455 122.039 158.73 121.375 160.926 120.498C161.926 120.884 163.008 121.008 164.069 120.86C165.13 120.712 166.137 120.297 166.993 119.653C166.993 119.653 156.947 91.5482 159.111 84.5423Z" fill="white"/>
<path d="M159.111 84.5423L140.387 92.3564C140.16 95.6471 139.345 98.8705 137.981 101.874C135.768 106.555 137.061 115.413 139.187 120.194C141.313 124.974 150.681 123.103 154.107 122.506C156.43 122.064 158.705 121.4 160.901 120.523C161.901 120.909 162.983 121.033 164.044 120.885C165.106 120.737 166.112 120.322 166.968 119.678C166.968 119.678 156.947 91.5482 159.111 84.5423Z" stroke="#2E2E2E" stroke-linecap="round" stroke-linejoin="round"/>
<path d="M167.242 124.993C167.242 126.441 166.421 127.616 165.414 127.616C164.407 127.616 163.593 126.441 163.593 124.993C163.593 123.544 164.407 119.858 165.414 119.858C166.421 119.858 167.242 123.544 167.242 124.993Z" fill="#F89E31" stroke="#2E2E2E" stroke-linecap="round" stroke-linejoin="round"/>
<path d="M188.97 202.603H120.795L118.572 165.124C118.511 164.761 118.529 164.389 118.625 164.033C118.722 163.677 118.894 163.347 119.131 163.064C119.367 162.781 119.662 162.554 119.995 162.396C120.328 162.238 120.692 162.155 121.06 162.152H188.678C189.049 162.151 189.415 162.232 189.752 162.388C190.088 162.544 190.386 162.771 190.626 163.054C190.865 163.337 191.04 163.669 191.138 164.027C191.236 164.384 191.255 164.759 191.193 165.124L188.97 202.603Z" fill="#2E2E2E" stroke="#2E2E2E" stroke-linecap="round" stroke-linejoin="round"/>
<path d="M124.153 163.047H188.187C188.549 163.044 188.907 163.119 189.236 163.268C189.566 163.418 189.859 163.637 190.095 163.911C190.33 164.186 190.503 164.508 190.601 164.857C190.699 165.205 190.72 165.57 190.662 165.927" stroke="white" stroke-linecap="round" stroke-linejoin="round"/>
<path d="M119.07 165.337C119.123 164.71 119.411 164.126 119.876 163.701C120.341 163.277 120.949 163.043 121.578 163.047" stroke="white" stroke-linecap="round" stroke-linejoin="round"/>
<path d="M189.255 198.953H120.51V202.603H189.255V198.953Z" fill="white" stroke="#2E2E2E" stroke-linecap="round" stroke-linejoin="round"/>
<path d="M158.656 182.801C159.156 182.326 159.515 181.717 159.691 181.044C159.867 180.371 159.853 179.661 159.652 178.995C159.45 178.33 159.068 177.735 158.551 177.281C158.033 176.826 157.4 176.528 156.724 176.423C156.049 176.318 155.357 176.408 154.73 176.684C154.102 176.961 153.564 177.411 153.176 177.985C152.788 178.558 152.567 179.232 152.537 179.928C152.507 180.623 152.671 181.314 153.008 181.92L152.269 182.622L152.445 183.876L151.296 183.547L150.371 184.429L150.548 185.682L149.398 185.354L148.601 186.112L148.709 186.882L148.009 186.683L147.544 187.124L147.475 188.284L149.173 188.719L154.685 183.48C155.339 183.778 156.065 183.872 156.771 183.751C157.478 183.63 158.133 183.3 158.656 182.801ZM158.118 178.239C158.259 178.393 158.352 178.586 158.385 178.794C158.419 179.002 158.391 179.215 158.305 179.406C158.219 179.598 158.08 179.76 157.904 179.871C157.728 179.981 157.524 180.037 157.318 180.029C157.111 180.022 156.911 179.952 156.743 179.829C156.576 179.706 156.448 179.535 156.375 179.338C156.303 179.141 156.29 178.926 156.337 178.721C156.385 178.516 156.491 178.33 156.642 178.186C156.742 178.091 156.86 178.017 156.988 177.968C157.117 177.919 157.253 177.896 157.39 177.901C157.528 177.906 157.662 177.938 157.787 177.996C157.912 178.054 158.024 178.136 158.118 178.239Z" fill="#F1F4F6"/>
</svg>
