<svg width="143" height="400" viewBox="0 0 143 400" fill="none" xmlns="http://www.w3.org/2000/svg">
<path d="M41.3079 135.519V149.396C40.8545 150.255 40.5178 151.171 40.3066 152.12C30.5945 147.113 21.1526 141.797 11.8109 136.029C10.4893 135.208 8.59691 134.027 6.53433 132.645C4.92478 131.586 3.54226 130.217 2.46744 128.618C1.39263 127.02 0.647054 125.222 0.27423 123.332C-0.0985935 121.442 -0.0911984 119.497 0.295984 117.609C0.683166 115.722 1.44238 113.931 2.52932 112.34C4.14134 109.967 5.69328 107.744 6.85473 106.172C8.48678 103.959 10.1689 101.767 11.9111 99.6239L28.3316 118.367C27.07 119.649 25.8185 120.951 24.5469 122.272C29.8736 126.768 35.5507 131.163 41.3079 135.519Z" fill="#EBAF7F"/>
<path d="M136.157 132.645C134.094 133.997 132.202 135.208 130.88 136.03C121.869 141.586 112.858 146.673 103.486 151.549C102.984 150.094 102.232 148.739 101.263 147.544L101.734 135.218C107.361 130.973 112.898 126.658 118.194 122.262C116.282 120.26 114.389 118.337 112.497 116.415L129.088 97.4812C131.451 100.305 133.714 103.218 135.896 106.172C137.058 107.744 138.61 109.967 140.222 112.34C141.306 113.934 142.061 115.729 142.444 117.618C142.827 119.508 142.829 121.455 142.45 123.346C142.072 125.236 141.32 127.032 140.24 128.629C139.159 130.226 137.771 131.591 136.157 132.645Z" fill="#EBAF7F"/>
<path d="M80.7573 43.3034H63.6258V76.1645H80.7573V43.3034Z" fill="#EBAF7F"/>
<path d="M80.7573 55.8792V58.7327C78.5379 60.4842 75.7845 61.4208 72.9575 61.3861H71.4256C68.5987 61.42 65.8456 60.4835 63.6258 58.7327V55.8892C65.845 57.64 68.5992 58.5734 71.4256 58.5325H72.9575C75.7856 58.5738 78.541 57.6365 80.7573 55.8792Z" fill="#E48855"/>
<path d="M128.857 95.5788L128.167 96.3798L111.536 115.404L111.075 115.924L109.363 114.182L102.795 107.484L101.733 135.178L101.263 147.504C102.232 148.699 102.984 150.054 103.486 151.509C104.195 153.522 104.378 155.683 104.016 157.787H40.5468C39.8662 155.959 39.7682 153.965 40.2665 152.08C40.4776 151.131 40.8144 150.215 41.2677 149.356V106.623L31.1551 115.984L28.8922 118.147L28.702 117.927L12.5518 98.7127L11.7207 97.7115L13.6031 95.8792C19.4504 90.2321 37.0224 73.2308 38.5543 71.9592C40.3966 70.4273 54.4943 66.4423 54.4943 66.4423L63.6357 62.0769V66.8729L72.0162 69.9768L80.7572 65.9717V62.0769L89.6483 66.2521L100.382 69.7865C104.227 72.0894 121.628 88.5901 127.185 93.8967L128.857 95.5788Z" fill="#F89E31"/>
<path d="M71.7059 69.9768L67.0701 71.1983L68.4518 78.2571H75.5006L76.7322 71.0481L71.7059 69.9768Z" fill="#002447"/>
<path d="M68.4518 78.2572C68.4518 78.2572 62.4443 136.51 63.1652 137.662C63.8861 138.813 71.4456 147.324 73.0476 147.554C74.6496 147.784 82.2491 138.543 81.7885 137.201C81.3279 135.859 75.5106 78.2572 75.5106 78.2572H68.4518Z" fill="#002447"/>
<path d="M72.0164 69.9768L66.0089 71.0882L65.248 74.923C61.4079 72.5788 58.0172 69.5678 55.2354 66.0318L63.6459 62.0769V66.8629L72.0164 69.9768Z" fill="#002447"/>
<path d="M71.716 69.9768L77.7235 71.0481L78.4845 74.8829C82.3363 72.4217 85.7479 69.3317 88.5771 65.7415L80.7173 62.0769V65.9117L71.716 69.9768Z" fill="#002447"/>
<path d="M94.9652 97.6014C94.5924 96.8889 94.2582 96.1569 93.9639 95.4086C93.6235 93.8467 94.9652 91.704 94.9652 91.704L93.3531 89.9718C91.1604 92.4449 88.6172 89.7415 88.6172 89.7415C88.6172 89.7415 86.084 92.4449 83.8913 89.9718L82.2793 91.704C82.2793 91.704 83.621 93.8467 83.2805 95.4086C82.9863 96.1569 82.652 96.8889 82.2793 97.6014C82.0018 98.4808 81.9164 99.4095 82.029 100.325C82.1225 101.302 82.5714 102.21 83.2905 102.878C84.1816 103.5 85.2143 103.889 86.2943 104.009C86.7038 104.115 87.1001 104.266 87.4758 104.46C87.6936 104.566 87.8985 104.697 88.0866 104.85C88.1767 104.931 88.4971 105.171 88.5571 105.331C88.6172 105.171 88.9276 104.931 89.0177 104.85C89.2108 104.7 89.4188 104.569 89.6385 104.46C90.0142 104.266 90.4105 104.115 90.82 104.009C91.9 103.889 92.9326 103.5 93.8237 102.878C94.5429 102.21 94.9918 101.302 95.0853 100.325C95.2401 99.4188 95.1992 98.4902 94.9652 97.6014Z" fill="#FFBF51"/>
<path d="M46.6046 70.5075L45.0526 68.505C45.0526 68.505 37.4831 69.8466 36.9024 70.5075C36.3217 71.1683 28.8924 80.0094 28.8924 80.0094L30.8148 81.8917L46.6046 70.5075Z" fill="#002447"/>
<path d="M94.2142 69.4361L95.7661 67.4837C95.7661 67.4837 103.336 68.8253 103.906 69.4862L111.916 78.9881L110.004 80.8704L94.2142 69.4361Z" fill="#002447"/>
<path d="M31.9361 116.835L29.0825 119.329L28.2414 118.367L11.8209 99.6239L10.4792 98.092L13.3428 95.5889L13.6031 95.8892L14.2639 96.6402L30.9048 115.654L31.1951 115.984L31.9361 116.835Z" fill="#002447"/>
<path d="M130.56 95.7891L129.078 97.4813L112.497 116.425L111.966 117.036L109.103 114.533L109.363 114.232L109.824 113.712L126.595 94.5676L127.145 93.9368L127.706 93.296L130.56 95.7891Z" fill="#002447"/>
<path d="M73.0175 147.584C73.6854 150.662 73.6854 153.848 73.0175 156.926C72.3496 153.848 72.3496 150.662 73.0175 147.584Z" fill="#2D87E0"/>
<path d="M41.3178 106.362C43.7725 103.009 46.759 100.081 50.1589 97.6915C48.9419 99.374 47.5782 100.945 46.0838 102.387C44.6183 103.853 43.0231 105.184 41.3178 106.362Z" fill="#2D87E0"/>
<path d="M102.555 106.863C101.939 106.608 101.4 106.196 100.991 105.67C100.582 105.143 100.317 104.519 100.222 103.859C100.843 104.103 101.384 104.516 101.784 105.051C102.207 105.57 102.474 106.198 102.555 106.863Z" fill="#2D87E0"/>
<path d="M92.7823 33.7714C92.1339 33.6827 91.4743 33.7256 90.8429 33.8976C90.2116 34.0697 89.6214 34.3673 89.1077 34.7727C89.4381 29.0355 89.0376 23.9191 88.547 22.1869C87.6258 19.023 80.2165 15.0179 72.1965 15.0179C64.1764 15.0179 56.7672 19.023 55.836 22.207C55.3354 23.9191 54.9549 28.9354 55.2553 34.5424C54.239 33.9121 53.0382 33.6472 51.851 33.7915C47.5256 33.9717 50.3591 48.6501 56.5169 44.0343L56.637 44.5649C57.1772 47.053 58.1534 49.4259 59.5206 51.5737C60.9513 53.7212 62.8515 55.5153 65.0776 56.8203C66.9876 57.9823 69.1904 58.5729 71.4255 58.5224H72.9574C75.522 58.569 78.0342 57.7936 80.1264 56.3097C81.9933 55.0483 83.601 53.4406 84.8623 51.5737C86.2493 49.3905 87.2328 46.9758 87.766 44.4448C87.766 44.2445 87.8561 44.0443 87.9062 43.834C94.204 48.9705 97.1477 33.9517 92.7823 33.7714Z" fill="#EBAF7F"/>
<path d="M51.9911 40.56C51.7192 40.1801 51.5315 39.7466 51.4404 39.2884C51.3149 38.8092 51.3149 38.3057 51.4404 37.8265C51.5172 37.5569 51.6674 37.3139 51.8743 37.1248C52.0811 36.9356 52.3365 36.8076 52.6119 36.7552C53.1401 36.6666 53.6824 36.7772 54.1338 37.0656C54.9681 37.591 55.6026 38.3805 55.9361 39.3084C56.1609 40.2226 56.1609 41.1777 55.9361 42.0919C55.8844 41.2065 55.7057 40.3331 55.4054 39.4986C55.0334 38.7367 54.4582 38.0923 53.7433 37.6363C53.6048 37.5177 53.4413 37.4319 53.265 37.3853C53.0887 37.3387 52.9042 37.3325 52.7252 37.3672C52.5462 37.4018 52.3773 37.4764 52.2311 37.5854C52.0849 37.6944 51.9653 37.835 51.881 37.9968C51.7444 38.3955 51.6932 38.8185 51.7308 39.2383C51.747 39.6899 51.8349 40.136 51.9911 40.56Z" fill="#E48855"/>
<path d="M54.2239 42.3522C53.8286 42.1322 53.5263 41.7765 53.3729 41.3509C53.2163 40.9359 53.1514 40.4918 53.1826 40.0493C53.1991 39.5613 53.4036 39.0985 53.7533 38.7577C53.9244 38.5912 54.1453 38.4855 54.3822 38.4565C54.6191 38.4276 54.8589 38.4771 55.065 38.5975C54.88 38.6008 54.6986 38.649 54.5364 38.7379C54.3742 38.8269 54.236 38.9539 54.1338 39.1081C53.9503 39.4104 53.8501 39.7558 53.8434 40.1094C53.8037 40.4855 53.8037 40.8647 53.8434 41.2408C53.9085 41.6296 54.037 42.0051 54.2239 42.3522Z" fill="#E48855"/>
<path d="M92.6822 40.5599C92.8293 40.1349 92.9038 39.6881 92.9025 39.2383C92.9332 38.8358 92.8856 38.4312 92.7623 38.0468C92.678 37.8851 92.5584 37.7445 92.4122 37.6355C92.266 37.5264 92.0971 37.4518 91.9181 37.4172C91.7391 37.3825 91.5546 37.3887 91.3783 37.4353C91.202 37.482 91.0385 37.5677 90.9 37.6863C90.1851 38.1423 89.6099 38.7867 89.2379 39.5487C88.9459 40.3544 88.7673 41.1969 88.7072 42.0518C88.4775 41.1382 88.4775 40.1819 88.7072 39.2683C89.0535 38.3411 89.7027 37.5579 90.5495 37.0455C90.996 36.7731 91.5254 36.6701 92.0414 36.7552C92.3163 36.8087 92.5712 36.937 92.7779 37.126C92.9846 37.315 93.1351 37.5574 93.2129 37.8265C93.3332 38.3064 93.3332 38.8085 93.2129 39.2883C93.124 39.7438 92.9434 40.1764 92.6822 40.5599Z" fill="#E48855"/>
<path d="M90.4095 42.3522C90.5896 41.9984 90.7049 41.6153 90.7499 41.2208C90.7895 40.8447 90.7895 40.4655 90.7499 40.0894C90.7374 39.7368 90.6376 39.3927 90.4595 39.0881C90.3555 38.9357 90.2169 38.81 90.0551 38.7212C89.8933 38.6325 89.7128 38.5833 89.5284 38.5775C89.7344 38.4571 89.9743 38.4076 90.2112 38.4365C90.4481 38.4655 90.669 38.5713 90.84 38.7377C91.2058 39.0793 91.4247 39.5495 91.4508 40.0493C91.48 40.4959 91.4116 40.9435 91.2505 41.361C91.0991 41.7822 90.8004 42.1343 90.4095 42.3522Z" fill="#E48855"/>
<path d="M66.129 52.7452C66.0883 54.1684 65.7291 55.5644 65.0776 56.8304C62.8516 55.5253 60.9514 53.7312 59.5207 51.5838C58.1535 49.436 57.1772 47.0631 56.6371 44.575C57.0386 44.5194 57.4433 44.4893 57.8486 44.4849C60.0404 44.4875 62.142 45.358 63.6937 46.906C65.2454 48.454 66.121 50.5534 66.129 52.7452Z" fill="#E9A770"/>
<path d="M87.766 44.4548C87.2328 46.9858 86.2493 49.4005 84.8623 51.5838C83.6009 53.4506 81.9933 55.0583 80.1264 56.3197C79.6216 55.1938 79.346 53.9787 79.3154 52.7452C79.3154 50.5482 80.1874 48.441 81.74 46.8866C83.2926 45.3321 85.3987 44.4575 87.5957 44.4548H87.766Z" fill="#E9A770"/>
<path d="M68.7022 37.426C68.7022 38.5674 68.0113 39.4886 67.1602 39.4886C66.3092 39.4886 65.6183 38.5674 65.6183 37.426C65.6183 36.2846 66.3092 35.3634 67.1602 35.3634C68.0113 35.3634 68.7022 36.2846 68.7022 37.426Z" fill="#4D2A40"/>
<path d="M80.2967 37.426C80.2967 38.5674 79.6059 39.4886 78.7548 39.4886C77.9038 39.4886 77.2129 38.5674 77.2129 37.426C77.2129 36.2846 77.9038 35.3634 78.7548 35.3634C79.6059 35.3634 80.2967 36.2846 80.2967 37.426Z" fill="#4D2A40"/>
<path d="M69.0926 31.4285C68.5207 31.3673 67.9452 31.3472 67.3704 31.3684C66.7801 31.3733 66.1909 31.4235 65.6082 31.5186C65.0168 31.6101 64.4341 31.7508 63.8661 31.9391C63.2862 32.1374 62.7179 32.3681 62.1639 32.63C62.1159 32.6518 62.0641 32.6639 62.0115 32.6656C61.9588 32.6673 61.9063 32.6586 61.857 32.64C61.8077 32.6214 61.7626 32.5933 61.7242 32.5572C61.6858 32.5211 61.6549 32.4778 61.6333 32.4298C61.609 32.3643 61.6027 32.2936 61.615 32.2249C61.6273 32.1563 61.6578 32.0922 61.7033 32.0393C62.1993 31.5684 62.7547 31.1645 63.3554 30.8378C63.9589 30.4889 64.6051 30.2196 65.2778 30.0368C65.9298 29.8491 66.6023 29.7415 67.2803 29.7164C67.9962 29.698 68.711 29.7823 69.403 29.9667C69.5042 29.9962 69.5984 30.0459 69.6799 30.1129C69.7614 30.1798 69.8285 30.2625 69.8772 30.3561C69.9258 30.4497 69.955 30.5521 69.963 30.6573C69.971 30.7624 69.9576 30.8681 69.9236 30.9679C69.8718 31.1359 69.764 31.281 69.6184 31.3793C69.4727 31.4777 69.2978 31.5233 69.1226 31.5086L69.0926 31.4285Z" fill="#4D2A40"/>
<path d="M70.4445 30.0968C70.4814 30.2513 70.4777 30.4127 70.4339 30.5653C70.39 30.7179 70.3074 30.8566 70.1942 30.9679C69.9692 31.1808 69.6934 31.3325 69.3931 31.4085C69.2896 31.4398 69.1778 31.429 69.0822 31.3784C68.9866 31.3277 68.9148 31.2414 68.8825 31.1381C68.8538 31.0346 68.8658 30.924 68.9161 30.829C68.9664 30.7341 69.0511 30.662 69.1529 30.6275C69.2024 30.6175 69.2535 30.6175 69.303 30.6275C69.4994 30.6471 69.6977 30.6232 69.8838 30.5574C69.9685 30.5216 70.0438 30.4668 70.104 30.3972C70.1632 30.3217 70.2012 30.2319 70.2142 30.1369C70.2153 30.1201 70.22 30.1038 70.2279 30.089C70.2357 30.0741 70.2466 30.0611 70.2598 30.0507C70.273 30.0403 70.2883 30.0328 70.3045 30.0287C70.3208 30.0246 70.3378 30.0239 70.3544 30.0267C70.3737 30.0308 70.3919 30.0392 70.4075 30.0514C70.4231 30.0635 70.4358 30.0791 70.4445 30.0968Z" fill="#4D2A40"/>
<path d="M76.8325 31.4285C77.401 31.3674 77.9732 31.3474 78.5446 31.3684C79.1383 31.3737 79.7307 31.4239 80.3168 31.5186C80.8982 31.6112 81.4709 31.7519 82.029 31.9392C82.6088 32.1374 83.1771 32.3681 83.7311 32.63C83.7791 32.6518 83.8309 32.6639 83.8836 32.6656C83.9362 32.6673 83.9887 32.6586 84.038 32.64C84.0873 32.6214 84.1324 32.5933 84.1708 32.5572C84.2092 32.5211 84.2401 32.4778 84.2618 32.4298C84.2936 32.3535 84.3011 32.2693 84.2831 32.1886C84.2652 32.108 84.2228 32.0348 84.1616 31.9792C83.6676 31.5061 83.1119 31.1019 82.5096 30.7777C81.9216 30.4552 81.2961 30.2064 80.6472 30.0368C79.9756 29.845 79.2828 29.7374 78.5847 29.7164C77.8721 29.6975 77.1605 29.7818 76.472 29.9667C76.2883 30.0168 76.1301 30.1339 76.0285 30.2949C75.927 30.4559 75.8895 30.6492 75.9234 30.8365C75.9574 31.0239 76.0603 31.1917 76.2119 31.3068C76.3635 31.422 76.5528 31.4761 76.7424 31.4586L76.8325 31.4285Z" fill="#4D2A40"/>
<path d="M75.4706 30.0969C75.4359 30.2522 75.4416 30.4138 75.4872 30.5663C75.5328 30.7188 75.6167 30.8571 75.7309 30.968C75.9538 31.1783 76.2257 31.3297 76.5219 31.4085C76.5748 31.4306 76.6316 31.4414 76.6889 31.4402C76.7462 31.439 76.8026 31.4258 76.8545 31.4016C76.9063 31.3773 76.9526 31.3424 76.9901 31.2991C77.0277 31.2559 77.0559 31.2053 77.0727 31.1505C77.0895 31.0958 77.0947 31.0381 77.088 30.9812C77.0812 30.9243 77.0626 30.8695 77.0333 30.8202C77.0041 30.771 76.9649 30.7284 76.9182 30.6952C76.8715 30.662 76.8183 30.639 76.7622 30.6275C76.7126 30.6176 76.6616 30.6176 76.612 30.6275C76.4156 30.6465 76.2175 30.6226 76.0313 30.5574C75.948 30.5192 75.8731 30.4647 75.811 30.3972C75.756 30.3194 75.7184 30.2306 75.7009 30.1369C75.6984 30.1197 75.6926 30.1032 75.6837 30.0883C75.6748 30.0734 75.663 30.0605 75.649 30.0502C75.635 30.04 75.6191 30.0326 75.6022 30.0286C75.5853 30.0245 75.5678 30.0239 75.5507 30.0268C75.5332 30.0322 75.517 30.0412 75.5032 30.0533C75.4893 30.0653 75.4782 30.0802 75.4706 30.0969Z" fill="#4D2A40"/>
<path d="M70.8248 43.0531C71.0724 43.0538 71.315 43.1232 71.5256 43.2533C71.7332 43.3881 71.9022 43.5744 72.0163 43.794C71.7684 43.7948 71.5254 43.7254 71.3154 43.5937C71.1053 43.4619 70.9356 43.2749 70.8248 43.0531Z" fill="#E48855"/>
<path d="M75.1002 43.0531C74.9829 43.2704 74.8146 43.456 74.6096 43.5937C74.3989 43.7239 74.1563 43.7932 73.9087 43.794C74.0195 43.5722 74.1893 43.3851 74.3993 43.2533C74.6093 43.1217 74.8523 43.0522 75.1002 43.0531Z" fill="#E48855"/>
<path d="M67.6609 44.4949C69.2611 45.5346 71.111 46.1259 73.0176 46.207C73.9393 46.2321 74.8572 46.0791 75.721 45.7564C76.1676 45.6046 76.6026 45.4206 77.0226 45.2058C77.4531 44.9955 77.8436 44.7251 78.2942 44.4949C77.9667 44.8554 77.6118 45.1901 77.2329 45.4961C76.8388 45.8049 76.4125 46.0702 75.9613 46.2871C75.0331 46.7618 73.9995 46.9926 72.9575 46.9579C71.9364 46.9457 70.9309 46.7063 70.0138 46.2571C69.1153 45.84 68.3139 45.2398 67.6609 44.4949Z" fill="#E48855"/>
<path d="M71.1953 47.7289C71.8557 47.852 72.5262 47.9124 73.1978 47.9092C73.5183 47.9092 73.8387 47.9092 74.1991 47.8391C74.5596 47.769 74.8699 47.749 75.2704 47.7289C75.0289 48.0307 74.7248 48.2765 74.3791 48.4493C74.0333 48.6222 73.6543 48.718 73.2679 48.7302C72.8659 48.7529 72.4647 48.6729 72.1021 48.4977C71.7395 48.3225 71.4275 48.058 71.1953 47.7289Z" fill="#E48855"/>
<path d="M59.1403 29.1156C59.1403 29.1156 57.7586 34.5224 56.9576 36.3547L55.2554 34.5224C55.2554 34.5224 52.4719 33.5211 50.9701 34.0618C50.9701 34.0618 53.4532 27.2032 54.2642 25.8215C55.0752 24.4398 58.2191 21.406 59.2705 22.3271C60.3218 23.2483 59.1403 29.1156 59.1403 29.1156Z" fill="#EAE3D0"/>
<path d="M85.4331 29.1156C86.037 31.5642 86.7655 33.9804 87.6158 36.3547L89.3079 34.5224C89.3079 34.5224 92.1014 33.5211 93.5933 34.0618C93.5933 34.0618 90.9299 27.2032 90.1289 25.8215C89.3279 24.4398 85.353 20.7151 84.3217 21.6363C83.2904 22.5574 85.4331 29.1156 85.4331 29.1156Z" fill="#EAE3D0"/>
<path d="M86.6547 5.72634C84.2417 5.89656 76.9626 5.88655 72.2667 0.289538C72.1896 0.198788 72.0937 0.125888 71.9857 0.075892C71.8776 0.0258958 71.76 0 71.6409 0C71.5219 0 71.4042 0.0258958 71.2962 0.075892C71.1881 0.125888 71.0922 0.198788 71.0151 0.289538C66.3092 5.88655 59.0001 5.89656 56.6171 5.72634C56.4004 5.71506 56.1878 5.78793 56.0236 5.92973C55.8594 6.07153 55.7564 6.2713 55.736 6.4873C54.935 13.3659 50.7798 16.2095 48.8974 17.1607C48.7881 17.2161 48.6924 17.295 48.6171 17.3917C48.5418 17.4885 48.4889 17.6007 48.4621 17.7203C48.4353 17.8399 48.4353 17.964 48.4621 18.0836C48.4889 18.2033 48.5418 18.3155 48.6171 18.4122L54.2742 25.8215L56.3768 23.5787L71.6459 22.8978L88.0364 23.5787L90.1391 25.8215L94.7949 18.3922C94.8577 18.2939 94.8991 18.1835 94.9164 18.0682C94.9337 17.9529 94.9265 17.8352 94.8954 17.7228C94.8642 17.6104 94.8097 17.5058 94.7355 17.4159C94.6613 17.3259 94.5689 17.2526 94.4645 17.2007C92.6222 16.2896 88.3568 13.466 87.5558 6.4873C87.533 6.26862 87.4264 6.06727 87.2585 5.92541C87.0905 5.78356 86.8741 5.71222 86.6547 5.72634Z" fill="#002447"/>
<path d="M55.806 23.5787H87.4656C85.5742 26.2039 83.0846 28.3406 80.2029 29.812C77.3212 31.2833 74.1304 32.0468 70.8948 32.0393C67.8783 31.9772 64.9234 31.1728 62.2917 29.6971C59.66 28.2215 57.4324 26.1201 55.806 23.5787Z" fill="#002447"/>
<path d="M56.3668 23.5787L55.2454 20.2145C59.4784 16.2815 64.8995 13.8686 70.6547 13.3559C80.0365 12.655 87.8863 19.5136 87.8863 19.5136L88.0365 23.5787H56.3668Z" fill="#F89E31"/>
<path d="M76.9225 15.4885C76.6175 14.8937 76.3467 14.2819 76.1115 13.6562C76.0663 12.5692 76.3603 11.495 76.9525 10.5824L75.6009 9.15061C73.7786 11.1531 71.6759 8.95035 71.6759 8.95035C71.6759 8.95035 69.5733 11.2032 67.741 9.15061L66.3993 10.5824C66.3993 10.5824 67.5207 12.3646 67.2304 13.6562C67.0028 14.2835 66.7352 14.8955 66.4294 15.4885C66.1881 16.2169 66.1095 16.9893 66.1991 17.7514C66.2645 18.5569 66.6204 19.3112 67.2003 19.874C67.9583 20.3911 68.8316 20.7143 69.7435 20.8152C70.0923 20.8935 70.429 21.0181 70.7448 21.1857C70.9265 21.2768 71.0978 21.3876 71.2554 21.5161C71.4049 21.6254 71.5366 21.7571 71.6459 21.9066C71.7525 21.7548 71.8846 21.6227 72.0364 21.5161C72.1924 21.3854 72.3639 21.2745 72.547 21.1857C72.8621 21.0167 73.1991 20.892 73.5483 20.8152C74.4572 20.7143 75.3272 20.3911 76.0814 19.874C76.6607 19.3107 77.0163 18.5567 77.0827 17.7514C77.195 16.9944 77.1403 16.2221 76.9225 15.4885Z" fill="#FFBF51"/>
<path d="M50.8298 17.7514C51.8784 18.4486 52.8195 19.2953 53.6233 20.2646C54.4489 21.2104 55.1243 22.2775 55.6258 23.4285C54.572 22.7342 53.6272 21.8873 52.8223 20.9154C52.0052 19.9651 51.3337 18.8988 50.8298 17.7514Z" fill="#004282"/>
<path d="M88.7073 23.5987C89.1868 22.3564 89.8372 21.1871 90.6397 20.1244C91.4131 19.0411 92.3368 18.0735 93.3831 17.2508C92.9057 18.491 92.2551 19.6573 91.4507 20.7151C90.6717 21.7967 89.7487 22.7668 88.7073 23.5987Z" fill="#004282"/>
<path d="M84.1416 31.3684C82.727 30.9487 81.2428 30.816 79.7762 30.9779H64.7574C63.2907 30.816 61.8065 30.9487 60.3919 31.3684C56.477 32.5599 56.3869 37.5462 56.9275 39.7589C57.0704 40.5082 57.3782 41.2162 57.8288 41.8316C58.2794 42.447 58.8614 42.9544 59.5326 43.3168C60.2037 43.6792 60.9471 43.8876 61.7089 43.9268C62.4706 43.9661 63.2315 43.8352 63.9363 43.5437C68.2417 42.0518 70.4244 37.0455 70.4244 37.0455C70.6602 36.3469 70.7521 35.6079 70.6948 34.8728C71.7286 34.629 72.8049 34.629 73.8387 34.8728C73.7822 35.6079 73.8742 36.3468 74.1091 37.0455C74.1091 37.0455 76.2918 42.0518 80.5571 43.5237C81.262 43.8152 82.0229 43.9461 82.7846 43.9068C83.5463 43.8676 84.2897 43.6592 84.9609 43.2968C85.632 42.9344 86.214 42.427 86.6646 41.8116C87.1152 41.1962 87.4231 40.4882 87.5659 39.7389C88.1166 37.5462 88.0365 32.5599 84.1416 31.3684ZM74.5596 33.1006C74.2436 33.466 74.0203 33.9022 73.9088 34.3722C72.8245 34.1392 71.7014 34.1563 70.6247 34.4223C70.5358 33.9372 70.3257 33.4826 70.0139 33.1006C69.1967 32.3164 68.1944 31.7515 67.1003 31.4585H77.5133C76.4049 31.7453 75.3882 32.3105 74.5596 33.1006Z" fill="#002447"/>
<g style="mix-blend-mode:screen" opacity="0.5">
<path d="M57.1678 36.615H56.7573C56.6706 37.4237 56.6706 38.2394 56.7573 39.0481H69.3131C69.735 38.4105 70.1066 37.741 70.4245 37.0456C70.4245 37.0456 70.4845 36.8754 70.5546 36.595L57.1678 36.615Z" fill="#002447"/>
</g>
<g style="mix-blend-mode:screen" opacity="0.5">
<path d="M74.0189 36.615C74.089 36.8953 74.1491 37.0656 74.1491 37.0656C74.467 37.7609 74.8385 38.4305 75.2605 39.0681H87.7361C87.8228 38.2661 87.8228 37.4571 87.7361 36.655L74.0189 36.615Z" fill="#002447"/>
</g>
<path d="M40.3667 396.856C40.6712 395.111 40.5927 393.321 40.1364 391.609C39.8461 390.358 38.1339 388.185 36.9124 386.813C37.3229 385.812 38.9149 382.007 40.9775 375.539H23.7659L22.9549 386.663C20.8022 389.116 16.2165 393.922 4.83222 396.856H40.3667Z" fill="#E48855"/>
<path d="M38.975 386.193C38.975 386.193 40.2866 390.338 40.7372 391.64C41.1877 392.941 41.428 400 41.428 400H30.4343V398.238L28.8923 399.77H1.0675C1.0675 399.77 1.75836 397.467 3.14009 397.237C4.52182 397.006 16.8573 391.79 16.8573 391.79C16.8573 391.79 18.7797 385.662 19.6207 385.512C20.4618 385.362 27.6308 389.417 28.3617 389.957C29.0926 390.498 32.4968 392.791 34.1089 392.1C35.7209 391.409 36.642 386.273 36.8723 386.273L38.975 386.193Z" fill="#F89E31"/>
<path d="M102.985 391.609C102.529 393.321 102.45 395.111 102.755 396.856H138.249C126.865 393.922 122.229 389.116 120.127 386.663L119.356 375.539H102.144C104.147 382.007 105.799 385.852 106.209 386.813C105.058 388.185 103.275 390.358 102.985 391.609Z" fill="#E48855"/>
<path d="M103.796 386.193C103.796 386.193 102.494 390.338 102.034 391.64C101.573 392.941 101.343 400 101.343 400H112.307V398.238L113.839 399.77H141.663C141.663 399.77 140.973 397.467 139.591 397.237C138.209 397.006 125.874 391.79 125.874 391.79C125.874 391.79 123.951 385.662 123.11 385.512C122.269 385.362 115.1 389.417 114.369 389.957C113.638 390.498 110.234 392.791 108.622 392.1C107.01 391.409 106.089 386.273 105.859 386.273L103.796 386.193Z" fill="#F89E31"/>
<path d="M40.8574 154.913L19.7009 385.812H41.7786L72.5972 199.529L101.573 384.891H124.572L102.945 155.374L40.8574 154.913Z" fill="#002447"/>
<path d="M84.2415 158.898H62.0137V164.115H84.2415V158.898Z" fill="#EAE3D0"/>
<path d="M93.4432 164.115H102.184L101.493 158.898H93.4432V164.115Z" fill="#EAE3D0"/>
<path d="M52.8123 158.898H42.3091L41.6183 164.115H52.8123V158.898Z" fill="#EAE3D0"/>
<path d="M79.1153 158.287H67.2304V164.725H79.1153V158.287Z" fill="#FFBF51"/>
<path d="M99.5509 165.436L102.555 192.66L105.438 219.885L111.065 274.353L116.462 328.851L119.075 356.115L121.578 383.379L118.585 356.155L115.691 328.931L110.074 274.463L104.677 219.965L102.064 192.71L99.5509 165.436Z" fill="#004282"/>
<path d="M47.6559 164.435L44.8124 191.98L41.8587 219.504L35.8011 274.543L29.5132 329.562L26.2892 357.056L22.955 384.541L25.7986 357.006L28.7523 329.472L34.8099 274.433L41.0977 219.424L44.3218 191.919L47.6559 164.435Z" fill="#004282"/>
<path d="M72.0162 165.777C72.1063 167.038 72.1564 168.3 72.2265 169.572C72.2966 170.843 72.3066 172.095 72.3566 173.366C72.4367 175.899 72.4868 178.373 72.5068 180.956L72.3566 180.615L75.2903 183.529L74.4392 183.879C74.4392 180.876 74.4393 177.952 74.5694 174.988C74.6996 172.025 74.7396 169.071 74.9399 166.107C75.1401 169.111 75.2403 172.035 75.3103 174.988C75.3804 177.942 75.4205 180.916 75.4405 183.879C75.4379 184.011 75.3844 184.137 75.291 184.231C75.1977 184.324 75.0718 184.377 74.9399 184.38C74.8744 184.38 74.8097 184.366 74.7495 184.34C74.6893 184.315 74.6349 184.277 74.5894 184.23L71.6758 181.296C71.5867 181.205 71.5364 181.083 71.5356 180.956C71.5356 178.423 71.5957 175.949 71.6858 173.366C71.6858 172.095 71.7459 170.833 71.816 169.572C71.8861 168.31 71.9261 167.038 72.0162 165.777Z" fill="#004282"/>
<path d="M45.4029 133.236H43.4705C42.6738 133.236 41.9098 133.552 41.3465 134.116C40.7832 134.679 40.4667 135.443 40.4667 136.24V153.421H25.8885C25.1157 153.421 24.3746 153.728 23.8282 154.275C23.2818 154.821 22.9748 155.562 22.9748 156.335C22.9748 157.108 23.2818 157.849 23.8282 158.395C24.3746 158.942 25.1157 159.249 25.8885 159.249H40.4567V211.784C40.4567 212.581 40.7732 213.345 41.3365 213.908C41.8998 214.472 42.6638 214.788 43.4605 214.788H45.3929C46.1895 214.788 46.9535 214.472 47.5169 213.908C48.0802 213.345 48.3966 212.581 48.3966 211.784V136.25C48.398 135.855 48.3216 135.464 48.1718 135.1C48.0221 134.735 47.8019 134.403 47.5239 134.123C47.2459 133.843 46.9156 133.621 46.5516 133.469C46.1877 133.316 45.7974 133.237 45.4029 133.236Z" fill="#0D5CA9"/>
<path d="M40.4567 159.259V163.143H48.4667V136.25C48.4667 135.453 48.1503 134.689 47.5869 134.126C47.0236 133.562 46.2596 133.246 45.463 133.246H43.4705C42.6738 133.246 41.9098 133.562 41.3465 134.126C40.7832 134.689 40.4667 135.453 40.4667 136.25V153.431H25.8885C25.1157 153.431 24.3746 153.738 23.8282 154.285C23.2818 154.831 22.9748 155.572 22.9748 156.345C22.9748 157.118 23.2818 157.859 23.8282 158.405C24.3746 158.952 25.1157 159.259 25.8885 159.259H40.4567Z" fill="#248CF0"/>
</svg>
