<svg width="24" height="24" viewBox="0 0 24 24" fill="none" xmlns="http://www.w3.org/2000/svg">
<path d="M19.45 6.94001V9.45001C19.45 10.16 18.73 10.62 18.06 10.37C17.1807 10.051 16.2399 9.93806 15.31 10.04C12.93 10.3 10.49 12.59 10.09 14.96C9.76004 16.93 10.39 18.77 11.6 20.07C12.15 20.67 11.78 21.64 10.97 21.73C10.28 21.81 9.60004 21.79 9.22004 21.51L3.72004 17.4C3.07004 16.91 2.54004 15.85 2.54004 15.03V6.94001C2.54004 5.81001 3.40004 4.57001 4.45004 4.17001L9.95004 2.11001C10.52 1.90001 11.46 1.90001 12.03 2.11001L17.53 4.17001C18.59 4.57001 19.45 5.81001 19.45 6.94001Z" fill="#F89E31"/>
<path d="M16 11.512C13.52 11.512 11.5 13.532 11.5 16.012C11.5 18.492 13.52 20.512 16 20.512C18.48 20.512 20.5 18.492 20.5 16.012C20.5 14.8185 20.0259 13.674 19.182 12.83C18.3381 11.9861 17.1935 11.512 16 11.512ZM21 22C20.73 22 20.48 21.89 20.29 21.71C20.25 21.66 20.2 21.61 20.17 21.55C20.1304 21.499 20.0999 21.4415 20.08 21.38C20.0511 21.3234 20.0309 21.2627 20.02 21.2C20.01 21.13 20 21.07 20 21C20 20.87 20.03 20.74 20.08 20.62C20.13 20.49 20.2 20.39 20.29 20.29C20.52 20.06 20.87 19.95 21.19 20.02C21.26 20.03 21.32 20.05 21.38 20.08C21.44 20.1 21.5 20.13 21.55 20.17C21.61 20.2 21.66 20.25 21.71 20.29C21.8 20.39 21.87 20.49 21.92 20.62C21.97 20.74 22 20.87 22 21C22 21.26 21.89 21.52 21.71 21.71C21.66 21.75 21.61 21.79 21.55 21.83C21.5 21.87 21.44 21.9 21.38 21.92C21.32 21.95 21.26 21.97 21.19 21.98C21.13 21.99 21.06 22 21 22Z" fill="white"/>
<path d="M16.188 16.052L15.7086 16.5314C15.4434 16.7966 15.4434 17.2284 15.7086 17.4936C15.9738 17.7588 16.4056 17.7588 16.6708 17.4936L17.4256 16.7388C17.6803 16.4833 17.8233 16.1373 17.8233 15.7766C17.8233 15.4158 17.6803 15.0698 17.4256 14.8144C17.1701 14.5597 16.8241 14.4166 16.4634 14.4166C16.1027 14.4166 15.7566 14.5597 15.5012 14.8144L14.6784 15.6372C14.5701 15.7454 14.4841 15.8739 14.4255 16.0154C14.3669 16.1569 14.3367 16.3085 14.3367 16.4617C14.3367 16.6148 14.3669 16.7665 14.4255 16.9079C14.4841 17.0494 14.5701 17.1779 14.6784 17.2862" stroke="black" stroke-width="1.5" stroke-linecap="round" stroke-linejoin="round"/>
<path d="M16.12 19.52C17.9978 19.52 19.52 17.9978 19.52 16.12C19.52 14.2422 17.9978 12.72 16.12 12.72C14.2422 12.72 12.72 14.2422 12.72 16.12C12.72 17.9978 14.2422 19.52 16.12 19.52Z" stroke="black" stroke-width="1.5" stroke-linecap="round" stroke-linejoin="round"/>
</svg>
